<?xml version="1.0" encoding="UTF-8"?>
<svg version="1.1" viewBox="0 0 512 512" xmlns="http://www.w3.org/2000/svg">
<path d="m298.07 502.28-1.3084-250.02-90.557-58.892c0.0241 18.134-1.2752 99.071-0.86844 155.96-0.0445 5.8248 0.0265 41.369 0.21934 48.405-57.73-20.42-99.087-75.486-99.087-140.21 0-82.114 66.566-148.68 148.68-148.68 82.114 0 148.68 66.566 148.68 148.68 0 27.789-5.6351 41.983-12.979 56.084l-33.414-21.7-0.90764 186.8 142.27-94.995-25.864-16.797c19.191-31.818 30.016-59.841 30.016-109.39 0-136.86-110.94-247.8-247.8-247.8-136.86 0-244.25 110.99-247.8 247.8-4.3284 166.8 152.89 245.72 290.72 244.76z" fill="#56b8d8" stroke="#0076b2" stroke-width="14.522"/>
</svg>
