<?xml version="1.0" encoding="UTF-8"?>
<svg width="256" height="256" version="1.1" viewBox="0 0 67.733332 67.733333" xmlns="http://www.w3.org/2000/svg">
<g transform="translate(-47.188 -86.712)">
<g transform="translate(7.065 -6.4017e-5)" stroke-width=".33866">
<path d="m47.639 154.12c-0.2851-0.18036-0.47344-0.78189-0.44901-1.4341 0.08504-2.2707 13.688-64.783 14.228-65.383 0.48949-0.54429 1.5629-0.59265 13.156-0.59265 14.279 0 13.399-0.17556 13.998 2.7941 0.1971 0.97775 2.0306 10.481 4.0744 21.119 2.0438 10.638 4.7126 24.522 5.9307 30.854 1.2181 6.332 2.2147 11.6 2.2147 11.706s-0.23949 0.43314-0.53219 0.72583c-0.45622 0.45622-1.7758 0.53218-9.2453 0.53218-6.3253 0-8.8245-0.11135-9.1195-0.40639-0.29975-0.29975-0.40639-3.3548-0.40639-11.642 0-8.9385-0.09213-11.312-0.45062-11.61-0.24784-0.20569-1.9071-0.90122-3.6873-1.5456l-3.2367-1.1716-3.3398 1.2658-3.3398 1.2658-0.16933 11.363c-0.13322 8.9394-0.26844 11.482-0.63411 11.922-0.41107 0.49483-1.507 0.55889-9.4824 0.55431-4.9597-3e-3 -9.2386-0.145-9.5087-0.31587z" fill="#4c4d4f" fill-opacity=".94118"/>
<path d="m65.232 141.12v-11.633l4.2574-1.5746c2.3416-0.86605 4.4628-1.5746 4.7137-1.5746 0.25096 0 2.3736 0.70207 4.717 1.5602l4.2607 1.5602v23.295h7.7891c4.284 0 7.7891-0.0955 7.7891-0.2123 0-0.17776-11.481-60.044-12.056-62.862l-0.18987-0.9313h-23.906l-0.18839 0.9313c-0.10361 0.51222-3.1706 14.839-6.8155 31.837-3.6449 16.998-6.6271 30.98-6.6271 31.072 0 0.0913 3.6575 0.16594 8.1277 0.16594h8.1277z" fill="#b1d244"/>
<path d="m70.085 117.39c-6.1795-2.8772-7.7951-10.733-3.2475-15.791 2.1573-2.3994 4.2704-3.3602 7.3999-3.3645 5.6981-0.0077 9.9345 4.2563 9.9523 10.018 0.01768 5.7102-4.2379 9.9532-9.9829 9.9532-1.7937 0-2.7967-0.19842-4.1218-0.81534z" fill="#4c4d4f"/>
<path d="m77.617 115.71c3.3999-1.5832 5.3536-5.3984 4.6036-8.9901-1.6242-7.7779-11.732-9.1927-15.19-2.126-2.0622 4.2151-0.47882 8.9699 3.6767 11.041 2.2915 1.1419 4.5658 1.1667 6.9094 0.0754z" fill="#fff"/>
</g>
</g>
</svg>
