<?xml version="1.0" encoding="UTF-8"?>
<svg version="1.1" viewBox="0 0 256 256" xmlns="http://www.w3.org/2000/svg">
<g transform="matrix(.6599 0 0 .6599 -94.386 -95.041)" fill="#fff" stroke="#68c0ad" stroke-width="3.0308">
<path d="m144.26 301.28s9.2283 32.299 41.528 32.299c32.299 0 69.632-39.43 83.475-54.531 13.842-15.101 47.4-59.984 84.733-59.984s63.277 41.199 77.602 57.887c1.6484 1.9203 2.8351 4.061 4.6138 4.5098 7.6531 1.9308 15.185 4.8752 20.135 5.138 5.8933 0.31287 6.5018-3.6704 10.906-6.292 4.2189-2.5113 10.067-5.4531 10.067-5.4531s-1.6778-5.4531-10.067-6.292c-8.3894-0.83893-13.423-10.067-15.52-13.004-2.0974-2.9363-1.6779-7.131 2.5168-3.7753 4.1947 3.3558 10.067 1.2584 13.843 3.7753 3.7753 2.5168 9.6478 7.9699 14.682 14.681 5.0336 6.7115 2.5168-1.2584 6.292-0.4195 3.7753 0.83893 4.6142 1.6779 11.745 7.131 7.131 5.4531 19.715 11.326 24.749 15.94 5.0338 4.6141 4.1948 5.4531 4.1948 7.9699s-3.7752 3.7753-7.5505 3.7753c-3.7752 0-1.6779-2.9363-4.6141-2.0974-2.9363 0.83893-8.3894 1.6779-11.326 1.2584-2.9363-0.41949-5.8726 5.0336-11.326 3.7752-5.4531-1.2584-6.292-5.4531-9.2283-0.41949-2.9363 5.0336-15.101 17.198-20.135 19.296-5.0336 2.0974-7.5504 14.681-10.487 15.94-2.9363 1.2584-15.52 4.6141-19.296 7.5504-3.7752 2.9363-14.472 19.191-17.408 23.805-2.9363 4.6142-8.4453 12.771-10.487 13.738-3.985 1.8876-7.8156 0.66113-9.3332-0.31464-3.3074-2.1265-6.1676-10.753-2.4206-13.53 0.50672-0.43744 1.4198-0.26001 1.4312 0.55255-0.0715 2.6714-0.22712 9.5052 5.0793 9.7263 5.0293 0.20953 4.1947-16.779 5.4531-22.651 1.2584-5.8726 5.8726-13.004 5.4531-16.359-0.41943-3.3558-12.165-6.7115-14.262-6.7115s-7.5504 2.5168-9.6478 7.9699-7.131 9.2283-7.131 15.52c0 6.2921 1.6778 49.917 5.0336 55.79 3.3558 5.8726 12.165 6.292 15.94 7.5504 3.7752 1.2584 59.984 19.296 63.34 19.715 3.3558 0.41943 4.5952-0.52948 6.7116-0.83899 2.1023-0.30737 12.255 4.9482 16.122 7.2996 0.94855 0.34278 0.55079 1.7685-2.1733 0.84253-2.5136-0.56616-4.3984 0.13599-5.5594 0.24725-3.2244 0.30903-0.62879 5.0187-4.1947 4.6142-3.7742-0.42816-18.037-6.7116-22.232-7.131-4.1947-0.41949-45.303-7.131-51.175-8.8089-5.8726-1.6778-23.071-2.9363-25.588-4.1947-2.5168-1.2584-5.0336-4.6141-8.3894-16.779-3.3558-12.165-12.584-41.947-15.101-44.883-2.5168-2.9363-10.487-20.135-10.487-23.071 0-2.9363-3.7752-1.6779-7.131-3.3557-3.3558-1.6779-23.91-13.843-28.524-18.876-4.6141-5.0337-20.135-21.393-20.135-21.393s-49.498 28.943-62.501 33.558c-13.004 4.6142-31.88 10.067-48.659 3.7752-14.113-5.9759-34.988-25.192-33.558-44.464z" fill="#fff" fill-rule="evenodd" stroke="#68c0ad" stroke-width="3.0308"/>
</g>
</svg>
