<?xml version="1.0" encoding="UTF-8"?>
<svg width="512" height="512" version="1.1" viewBox="0 0 135.46666 135.46667" xmlns="http://www.w3.org/2000/svg">
<g transform="translate(0 -161.53)" fill="#fff" stroke="#fff" stroke-width="2.6458">
<path d="m6.3316 164.85h9.0951q1.8001 6.2528 1.8001 12.695v13.832q4.5475-11.179 13.074-19.611 8.5266-8.4319 16.106-8.4319 11.274 0 18.095 7.8634 6.8213 7.7687 8.6214 20.18 4.737-11.558 12.695-19.611 8.0529-8.1476 15.822-8.1476 8.9056 0 15.064 5.5897 6.2528 5.4949 8.9056 13.927 2.7475 8.3371 2.7475 18.664v59.118h-8.5266v-59.118q0-5.116-0.85266-9.9477-0.85267-4.8318-2.8422-9.474-1.8948-4.6423-5.6844-7.4845t-9.0003-2.8422q-6.3476 0-13.264 7.2002-6.916 7.1055-11.274 16.769t-4.358 17.148v47.749h-8.5266v-59.307q0-5.2107-0.85266-10.042-0.85266-4.8318-2.7475-9.474-1.8948-4.6423-5.7791-7.3897-3.7896-2.8422-9.0951-2.8422-5.8739 0-12.695 6.8213-6.7265 6.8213-11.179 16.485-4.4528 9.6635-4.4528 17.622v48.128h-8.5266v-83.371q0-8.1476-2.3685-12.695z"/>
<path d="m34.358 197.46h8.5266v59.402q0 12.411 7.4845 21.032 7.4845 8.6214 18.285 8.6214 10.895 0 18.759-8.6214 7.9582-8.7161 7.9582-21.032v-59.402h8.5266v59.402q0 15.632-10.137 26.906-10.137 11.179-24.727 11.179-14.495 0-24.632-11.179-10.042-11.274-10.042-26.906z"/>
</g>
</svg>
