<?xml version="1.0" encoding="UTF-8" standalone="no"?>
<!-- Generator: Adobe Illustrator 19.0.0, SVG Export Plug-In . SVG Version: 6.00 Build 0)  -->

<svg
   xmlns:dc="http://purl.org/dc/elements/1.1/"
   xmlns:cc="http://creativecommons.org/ns#"
   xmlns:rdf="http://www.w3.org/1999/02/22-rdf-syntax-ns#"
   xmlns:svg="http://www.w3.org/2000/svg"
   xmlns="http://www.w3.org/2000/svg"
   xmlns:sodipodi="http://sodipodi.sourceforge.net/DTD/sodipodi-0.dtd"
   xmlns:inkscape="http://www.inkscape.org/namespaces/inkscape"
   version="1.1"
   id="Layer_1"
   x="0px"
   y="0px"
   viewBox="0 0 250 249.99986"
   xml:space="preserve"
   sodipodi:docname="addressbook.svg"
   width="250"
   height="249.99986"
   inkscape:version="0.92.3 (d244b95, 2018-08-02)"><metadata
   id="metadata1025"><rdf:RDF><cc:Work
       rdf:about=""><dc:format>image/svg+xml</dc:format><dc:type
         rdf:resource="http://purl.org/dc/dcmitype/StillImage" /><dc:title></dc:title></cc:Work></rdf:RDF></metadata><defs
   id="defs1023" /><sodipodi:namedview
   pagecolor="#ffffff"
   bordercolor="#666666"
   borderopacity="1"
   objecttolerance="10"
   gridtolerance="10"
   guidetolerance="10"
   inkscape:pageopacity="0"
   inkscape:pageshadow="2"
   inkscape:window-width="1920"
   inkscape:window-height="1025"
   id="namedview1021"
   showgrid="false"
   fit-margin-top="0"
   fit-margin-left="0"
   fit-margin-right="0"
   fit-margin-bottom="0"
   inkscape:zoom="1.6386719"
   inkscape:cx="215.90169"
   inkscape:cy="181.21357"
   inkscape:window-x="1920"
   inkscape:window-y="27"
   inkscape:window-maximized="1"
   inkscape:current-layer="Layer_1" />
<path
   style="fill:#ff6464;stroke-width:0.48828098"
   d="m 231.59216,131.89885 -18.31639,14.65283 V 99.138127 h 17.2412 c 2.38037,0 4.31054,1.930173 4.31054,4.310543 v 21.71874 c 0,2.61865 -1.18994,5.09521 -3.23535,6.73144 z"
   id="path946"
   inkscape:connector-curvature="0" />
<path
   style="fill:#ffb450;stroke-width:0.48828098"
   d="m 231.59216,110.34711 -18.31591,14.65282 V 77.586377 h 17.24121 c 2.38037,0 4.31054,1.93018 4.31054,4.31055 v 21.718733 c -4.9e-4,2.61866 -1.19043,5.09571 -3.23584,6.73145 z"
   id="path948"
   inkscape:connector-curvature="0" />
<path
   style="fill:#ffe164;stroke-width:0.48828098"
   d="M 231.59216,88.795357 213.27577,103.44818 V 56.034637 h 17.2412 c 2.38037,0 4.31054,1.93017 4.31054,4.31054 v 21.71874 c 0,2.61865 -1.18994,5.0957 -3.23535,6.73144 z"
   id="path950"
   inkscape:connector-curvature="0" />
<path
   style="fill:#a5eb78;stroke-width:0.48828098"
   d="m 231.59216,67.243617 -18.31639,14.65282 v -47.41355 h 17.2412 c 2.38037,0 4.31054,1.93018 4.31054,4.31055 v 21.71873 c 0,2.61865 -1.18994,5.0957 -3.23535,6.73145 z"
   id="path952"
   inkscape:connector-curvature="0" />
<path
   style="fill:#00d2ff;stroke-width:0.48828098"
   d="m 231.59216,45.691867 -18.31639,14.65282 v -47.41354 h 17.2412 c 2.38037,0 4.31054,1.93017 4.31054,4.31054 v 21.71874 c 0,2.61865 -1.18994,5.0957 -3.23535,6.73144 z"
   id="path954"
   inkscape:connector-curvature="0" />
<path
   style="fill:#cccccc;fill-opacity:1;stroke-width:0.48828098"
   d="M 217.58631,249.99986 H 32.241691 c -2.38037,0 -4.31055,-1.93018 -4.31055,-4.31055 V 4.3105473 c 0,-2.38037 1.93018,-4.3105499708984 4.31055,-4.3105499708984 H 217.58631 c 2.38037,0 4.31055,1.9301799708984 4.31055,4.3105499708984 V 245.6898 c 0,2.37988 -1.93018,4.31006 -4.31055,4.31006 z"
   id="path956"
   inkscape:connector-curvature="0" />
<path
   style="fill:#5b5d6e;stroke-width:0.48828098"
   d="m 66.724581,249.99986 h -34.48289 c -2.38037,0 -4.31055,-1.93018 -4.31055,-4.31055 V 4.3105473 c 0,-2.38037 1.93018,-4.3105499708984 4.31055,-4.3105499708984 h 34.48289 z"
   id="path958"
   inkscape:connector-curvature="0" />
<g
   id="g982"
   transform="matrix(0.48828097,0,0,0.48828097,-0.085929,-2.6708984e-6)">
	<path
   style="fill:#707487"
   d="m 75.034,88.276 h -35.31 c -4.875,0 -8.828,-3.953 -8.828,-8.828 0,-4.875 3.953,-8.828 8.828,-8.828 h 35.31 c 4.875,0 8.828,3.953 8.828,8.828 0,4.875 -3.952,8.828 -8.828,8.828 z"
   id="path960"
   inkscape:connector-curvature="0" />
	<path
   style="fill:#707487"
   d="m 75.034,44.138 h -35.31 c -4.875,0 -8.828,-3.953 -8.828,-8.828 0,-4.875 3.953,-8.828 8.828,-8.828 h 35.31 c 4.875,0 8.828,3.953 8.828,8.828 0,4.875 -3.952,8.828 -8.828,8.828 z"
   id="path962"
   inkscape:connector-curvature="0" />
	<path
   style="fill:#707487"
   d="m 75.034,485.517 h -35.31 c -4.875,0 -8.828,-3.953 -8.828,-8.828 0,-4.875 3.953,-8.828 8.828,-8.828 h 35.31 c 4.875,0 8.828,3.953 8.828,8.828 0,4.876 -3.952,8.828 -8.828,8.828 z"
   id="path964"
   inkscape:connector-curvature="0" />
	<path
   style="fill:#707487"
   d="m 75.034,132.414 h -35.31 c -4.875,0 -8.828,-3.953 -8.828,-8.828 0,-4.875 3.953,-8.828 8.828,-8.828 h 35.31 c 4.875,0 8.828,3.953 8.828,8.828 0,4.875 -3.952,8.828 -8.828,8.828 z"
   id="path966"
   inkscape:connector-curvature="0" />
	<path
   style="fill:#707487"
   d="m 75.034,176.552 h -35.31 c -4.875,0 -8.828,-3.953 -8.828,-8.828 0,-4.875 3.953,-8.828 8.828,-8.828 h 35.31 c 4.875,0 8.828,3.953 8.828,8.828 0,4.875 -3.952,8.828 -8.828,8.828 z"
   id="path968"
   inkscape:connector-curvature="0" />
	<path
   style="fill:#707487"
   d="m 75.034,220.69 h -35.31 c -4.875,0 -8.828,-3.953 -8.828,-8.828 0,-4.875 3.953,-8.828 8.828,-8.828 h 35.31 c 4.875,0 8.828,3.953 8.828,8.828 0,4.875 -3.952,8.828 -8.828,8.828 z"
   id="path970"
   inkscape:connector-curvature="0" />
	<path
   style="fill:#707487"
   d="m 75.034,264.828 h -35.31 c -4.875,0 -8.828,-3.953 -8.828,-8.828 0,-4.875 3.953,-8.828 8.828,-8.828 h 35.31 c 4.875,0 8.828,3.953 8.828,8.828 0,4.875 -3.952,8.828 -8.828,8.828 z"
   id="path972"
   inkscape:connector-curvature="0" />
	<path
   style="fill:#707487"
   d="m 75.034,308.966 h -35.31 c -4.875,0 -8.828,-3.953 -8.828,-8.828 0,-4.875 3.953,-8.828 8.828,-8.828 h 35.31 c 4.875,0 8.828,3.953 8.828,8.828 0,4.875 -3.952,8.828 -8.828,8.828 z"
   id="path974"
   inkscape:connector-curvature="0" />
	<path
   style="fill:#707487"
   d="m 75.034,353.103 h -35.31 c -4.875,0 -8.828,-3.953 -8.828,-8.828 0,-4.875 3.953,-8.828 8.828,-8.828 h 35.31 c 4.875,0 8.828,3.953 8.828,8.828 0,4.876 -3.952,8.828 -8.828,8.828 z"
   id="path976"
   inkscape:connector-curvature="0" />
	<path
   style="fill:#707487"
   d="m 75.034,397.241 h -35.31 c -4.875,0 -8.828,-3.953 -8.828,-8.828 0,-4.875 3.953,-8.828 8.828,-8.828 h 35.31 c 4.875,0 8.828,3.953 8.828,8.828 0,4.875 -3.952,8.828 -8.828,8.828 z"
   id="path978"
   inkscape:connector-curvature="0" />
	<path
   style="fill:#707487"
   d="m 75.034,441.379 h -35.31 c -4.875,0 -8.828,-3.953 -8.828,-8.828 0,-4.875 3.953,-8.828 8.828,-8.828 h 35.31 c 4.875,0 8.828,3.953 8.828,8.828 0,4.875 -3.952,8.828 -8.828,8.828 z"
   id="path980"
   inkscape:connector-curvature="0" />
</g>
<path
   style="fill:#464655;stroke-width:0.48828098"
   d="m 53.793431,241.37926 v 0 c -2.38036,0 -4.31054,-1.93018 -4.31054,-4.31055 V 12.931147 c 0,-2.38037 1.93018,-4.3105497 4.31054,-4.3105497 v 0 c 2.38037,0 4.31055,1.9301797 4.31055,4.3105497 V 237.06871 c -4.9e-4,2.38037 -1.93018,4.31055 -4.31055,4.31055 z"
   id="path984"
   inkscape:connector-curvature="0" />


<g
   id="g990"
   transform="matrix(0.48828097,0,0,0.48828097,-0.085929,-2.6708984e-6)">
</g>
<g
   id="g992"
   transform="matrix(0.48828097,0,0,0.48828097,-0.085929,-2.6708984e-6)">
</g>
<g
   id="g994"
   transform="matrix(0.48828097,0,0,0.48828097,-0.085929,-2.6708984e-6)">
</g>
<g
   id="g996"
   transform="matrix(0.48828097,0,0,0.48828097,-0.085929,-2.6708984e-6)">
</g>
<g
   id="g998"
   transform="matrix(0.48828097,0,0,0.48828097,-0.085929,-2.6708984e-6)">
</g>
<g
   id="g1000"
   transform="matrix(0.48828097,0,0,0.48828097,-0.085929,-2.6708984e-6)">
</g>
<g
   id="g1002"
   transform="matrix(0.48828097,0,0,0.48828097,-0.085929,-2.6708984e-6)">
</g>
<g
   id="g1004"
   transform="matrix(0.48828097,0,0,0.48828097,-0.085929,-2.6708984e-6)">
</g>
<g
   id="g1006"
   transform="matrix(0.48828097,0,0,0.48828097,-0.085929,-2.6708984e-6)">
</g>
<g
   id="g1008"
   transform="matrix(0.48828097,0,0,0.48828097,-0.085929,-2.6708984e-6)">
</g>
<g
   id="g1010"
   transform="matrix(0.48828097,0,0,0.48828097,-0.085929,-2.6708984e-6)">
</g>
<g
   id="g1012"
   transform="matrix(0.48828097,0,0,0.48828097,-0.085929,-2.6708984e-6)">
</g>
<g
   id="g1014"
   transform="matrix(0.48828097,0,0,0.48828097,-0.085929,-2.6708984e-6)">
</g>
<g
   id="g1016"
   transform="matrix(0.48828097,0,0,0.48828097,-0.085929,-2.6708984e-6)">
</g>
<g
   id="g1018"
   transform="matrix(0.48828097,0,0,0.48828097,-0.085929,-2.6708984e-6)">
</g>
<g
   id="g5501"
   transform="matrix(0.40729204,0,0,0.40240496,94.711711,66.505037)"><path
     style="fill:#ff9138;fill-opacity:1;stroke:#864a05;stroke-width:5.93309736;stroke-miterlimit:4;stroke-dasharray:none;stroke-opacity:1"
     inkscape:connector-curvature="0"
     d="m 2.9665487,243.21834 c 0,-4.30306 6.7672941,-41.28576 7.9142803,-43.25093 0.408654,-0.70012 1.423749,-5.2353 2.255726,-10.07818 1.940785,-11.29692 5.518973,-23.43503 7.62524,-25.86641 0.905416,-1.0453 9.030434,-3.52986 18.055599,-5.52134 27.725373,-6.11789 39.945042,-10.83033 45.978057,-17.73112 2.875522,-3.28923 7.224644,-6.71736 9.664475,-7.61796 3.87654,-1.43097 4.436348,-2.3414 4.436348,-7.21622 0,-3.06829 -0.88582,-6.92434 -1.968274,-8.56908 -1.082454,-1.64482 -2.444379,-6.06059 -3.026531,-9.81288 -0.582163,-3.75232 -2.273618,-8.04281 -3.759012,-9.53451 -1.485285,-1.491758 -2.70052,-3.395548 -2.70052,-4.230664 0,-0.835125 -1.449697,-3.594556 -3.221501,-6.132168 C 81.472446,83.72132 80.97253,81.000288 80.819415,69.146302 80.523643,46.244582 82.377694,35.764753 88.434602,26.102629 96.98667,12.459694 113.50232,3.0104837 128.87142,2.9668698 c 6.00557,-0.017053 8.52878,0.7202476 11.05069,3.2288412 1.90433,1.8944153 6.3796,3.771774 10.72468,4.499121 8.64473,1.446917 16.41957,7.259955 20.19451,15.098943 1.89781,3.941018 2.50385,8.935865 2.50569,20.648787 9.9e-4,8.662145 0.63122,15.86199 1.43396,16.387331 3.89338,2.547949 0.26128,20.152081 -5.84651,28.337571 -2.29689,3.078049 -4.19018,6.830336 -4.20739,8.338466 -0.0174,1.50806 -1.30596,5.71602 -2.86364,9.35097 -5.17323,12.07197 -3.39308,24.01981 3.97735,26.69422 1.3734,0.49833 4.75216,3.97646 7.50835,7.72909 2.75626,3.75267 6.62201,7.20854 8.59067,7.67972 1.96879,0.47131 10.79768,3.86019 19.61973,7.53105 8.82205,3.67081 16.4701,6.67424 16.99562,6.67424 0.52561,0 3.74657,1.87611 7.15799,4.16928 6.09623,4.0978 9.20278,9.56774 9.20278,16.2034 0,1.78399 1.3325,5.9461 2.96082,9.24928 2.62058,5.31581 4.4042,15.50999 8.01407,45.80297 l 0.76788,6.4433 H 124.81251 2.9665586 v -3.81511 z"
     id="path2396" /><text
     transform="scale(1.3965716,0.71603919)"
     xml:space="preserve"
     font-size="24"
     id="svg_2"
     y="258.42407"
     x="-250.1169"
     stroke-linecap="null"
     stroke-linejoin="null"
     style="font-size:144.84446716px;font-family:Arial;text-anchor:middle;fill:#000000;stroke:#000000;stroke-width:0;stroke-dasharray:none" />
<text
     transform="scale(1.3139625,0.76105673)"
     xml:space="preserve"
     font-size="24"
     id="svg_3"
     y="271.85724"
     x="-247.95993"
     stroke-linecap="null"
     stroke-linejoin="null"
     style="font-size:131.7716217px;font-family:Arial;text-anchor:middle;fill:#000000;stroke:#000000;stroke-width:0;stroke-dasharray:none" />
<text
     xml:space="preserve"
     font-size="24"
     id="svg_4"
     y="142.97015"
     x="-363.30646"
     stroke-linecap="null"
     stroke-linejoin="null"
     style="font-size:24px;font-family:Arial;text-anchor:middle;fill:#000000;stroke:#000000;stroke-width:0;stroke-dasharray:none" />
</g></svg>