<?xml version="1.0" encoding="UTF-8"?>
<svg width="250" height="250" preserveAspectRatio="xMinYMin meet" version="1.1" viewBox="0 0 28.699552 28.7001" xmlns="http://www.w3.org/2000/svg">
<path d="m21.895 23.217-2.881-8.868 7.5418-5.4792h-9.3225l-2.8813-8.8678-9.1e-4 -2e-3h9.3239l2.882 8.8692 2e-4 -2.1e-4 2e-3 -1e-3c1.6736 5.1453-0.0501 10.998-4.6646 14.35zm-15.087 0-2e-3 2e-3 7.5438 5.4807 7.5455-5.4822-7.543-5.4808-7.5438 5.4806zm-4.6624-14.35c-1.7619 5.4239 0.28329 11.171 4.661 14.351l7e-4 -3e-3 2.8815-8.8675-7.5401-5.4782h9.3203l2.8814-8.8677 6e-4 -2e-3h-9.3244l-2.8811 8.868z" fill="#eb5424" stroke-width=".10028"/>
</svg>
