<?xml version="1.0" encoding="UTF-8" standalone="no"?>
<!-- Generator: Adobe Illustrator 16.0.0, SVG Export Plug-In . SVG Version: 6.00 Build 0)  -->

<svg
   xmlns:dc="http://purl.org/dc/elements/1.1/"
   xmlns:cc="http://creativecommons.org/ns#"
   xmlns:rdf="http://www.w3.org/1999/02/22-rdf-syntax-ns#"
   xmlns:svg="http://www.w3.org/2000/svg"
   xmlns="http://www.w3.org/2000/svg"
   xmlns:sodipodi="http://sodipodi.sourceforge.net/DTD/sodipodi-0.dtd"
   xmlns:inkscape="http://www.inkscape.org/namespaces/inkscape"
   version="1.1"
   id="Layer_1"
   x="0px"
   y="0px"
   width="250.00066"
   height="250"
   viewBox="0 0 250.00066 249.99999"
   enable-background="new 0 0 512 512"
   xml:space="preserve"
   sodipodi:docname="client.svg"
   inkscape:version="0.92.1 unknown"><metadata
     id="metadata23"><rdf:RDF><cc:Work
         rdf:about=""><dc:format>image/svg+xml</dc:format><dc:type
           rdf:resource="http://purl.org/dc/dcmitype/StillImage" /><dc:title></dc:title></cc:Work></rdf:RDF></metadata><defs
     id="defs21" /><sodipodi:namedview
     pagecolor="#ffffff"
     bordercolor="#666600"
     borderopacity="1"
     objecttolerance="10"
     gridtolerance="10"
     guidetolerance="10"
     inkscape:pageopacity="0"
     inkscape:pageshadow="2"
     inkscape:window-width="1920"
     inkscape:window-height="1056"
     id="namedview19"
     showgrid="false"
     inkscape:zoom="2.6074563"
     inkscape:cx="143.86118"
     inkscape:cy="62.448156"
     inkscape:window-x="0"
     inkscape:window-y="24"
     inkscape:window-maximized="1"
     inkscape:current-layer="Layer_1"
     inkscape:pagecheckerboard="true"
     fit-margin-top="0"
     fit-margin-left="0"
     fit-margin-right="0"
     fit-margin-bottom="0"
     inkscape:showpageshadow="false"
     showborder="true" /><rect
     style="opacity:1;fill:#ff9038;fill-opacity:1;stroke:none;stroke-width:3.90788245;stroke-miterlimit:4;stroke-dasharray:none;stroke-opacity:1"
     id="rect4513"
     width="71.898857"
     height="98.594849"
     x="172.54294"
     y="97.044014" /><rect
     style="opacity:1;fill:#ff9038;fill-opacity:1;stroke:none;stroke-width:4.21785784;stroke-miterlimit:4;stroke-dasharray:none;stroke-opacity:1"
     id="rect4511"
     width="34.877522"
     height="71.277039"
     x="3.9629948"
     y="129.99187" /><rect
     style="opacity:1;fill:#ff9038;fill-opacity:1;stroke:none;stroke-width:4.04915094;stroke-miterlimit:4;stroke-dasharray:none;stroke-opacity:1"
     id="rect4509"
     width="160.65387"
     height="104.04014"
     x="26.877501"
     y="65.610664" /><path
     inkscape:connector-curvature="0"
     id="path6"
     d="m 130.60046,195.60556 c -3.15959,-2.32161 -3.49394,-5.81009 -3.49394,-5.81009 l -1.18386,-7.56859 H 88.177413 l -1.1875,7.56859 c 0,0 -0.3301,3.48848 -3.48787,5.81009 -3.15414,2.32403 -5.64686,4.31615 -3.15414,4.65353 2.39989,0.32221 25.034047,0.0291 26.703957,0 1.67415,0.0291 24.30346,0.32221 26.70577,0 2.48727,-0.33738 -0.006,-2.32464 -3.15717,-4.65353 z"
     style="fill:#864a05;fill-opacity:1;stroke-width:0.6067977" /><path
     inkscape:connector-curvature="0"
     id="path8"
     d="m 42.802293,132.08051 c 0,-3.50122 -2.84042,-6.34164 -6.34224,-6.34164 H 6.342857 C 2.841027,125.73887 0,128.57929 0,132.08051 v 66.57663 C 0,202.16261 2.841027,205 6.342857,205 h 30.119616 c 3.50001,0 6.34225,-2.83739 6.34225,-6.34286 V 132.08051 Z M 18.25551,132.8742 h 6.341643 c 0.43811,0 0.79248,0.35377 0.79248,0.78884 0,0.43932 -0.35437,0.79612 -0.79248,0.79612 H 18.25551 c -0.438108,0 -0.793692,-0.35923 -0.793692,-0.79612 6.07e-4,-0.43993 0.35619,-0.78884 0.793692,-0.78884 z m 2.906563,68.37579 c -1.75183,0 -3.172948,-1.41869 -3.172948,-3.17173 0,-1.75061 1.421118,-3.17173 3.172948,-3.17173 1.75061,0 3.17052,1.41626 3.17052,3.17173 0,1.75304 -1.41748,3.17173 -3.17052,3.17173 z m 17.67844,-8.93024 H 3.962996 V 139.2122 h 34.878127 v 53.10755 z"
     style="fill:#864a05;fill-opacity:1;stroke-width:0.6067977" /><path
     inkscape:connector-curvature="0"
     id="path10"
     d="m 241.10682,89.26668 h -65.22894 c -4.91202,0 -8.89383,3.97938 -8.89383,8.89262 v 93.35826 c 0,4.91263 3.98241,8.89686 8.89383,8.89686 h 65.22894 c 4.91506,0 8.89383,-3.98423 8.89383,-8.89686 V 98.15748 c -0.002,-4.91324 -3.9812,-8.8908 -8.89383,-8.8908 z m -45.38544,106.19931 c -2.45571,0 -4.45025,-1.98666 -4.45025,-4.44055 0,-2.45631 1.99454,-4.44782 4.45025,-4.44782 2.45147,0 4.43873,1.99151 4.43873,4.44782 6.1e-4,2.45389 -1.98726,4.44055 -4.43873,4.44055 z m 12.76885,0 c -2.45147,0 -4.44358,-1.98666 -4.44358,-4.44055 0,-2.45631 1.99211,-4.44782 4.44358,-4.44782 2.45874,0 4.4454,1.99151 4.4454,4.44782 0,2.45389 -1.98423,4.44055 -4.4454,4.44055 z m 12.78098,0 c -2.45875,0 -4.44601,-1.98666 -4.44601,-4.44055 0,-2.45631 1.98726,-4.44782 4.44601,-4.44782 2.45328,0 4.44297,1.99151 4.44297,4.44782 0,2.45389 -1.98969,4.44055 -4.44297,4.44055 z M 244.44178,182.6219 H 172.54292 V 97.04401 h 71.89886 z"
     style="fill:#864a05;fill-opacity:1;stroke-width:0.6067977" /><path
     inkscape:connector-curvature="0"
     id="path12"
     d="m 186.76018,91.07593 h 11.39811 V 61.96807 c 0,-4.02853 -3.26397,-7.290066 -7.29007,-7.290066 H 23.232463 c -4.02489,0 -7.290066,3.261536 -7.290066,7.290066 l -0.465433,63.72074 11.400539,0.93086 V 65.61068 H 187.22561 Z"
     sodipodi:nodetypes="ccssssccccc"
     style="fill:#864a05;fill-opacity:1;stroke-width:0.6067977" /><path
     inkscape:connector-curvature="0"
     id="path14"
     d="m 42.390563,153.07146 v 21.86535 H 166.93157 v -21.86535 z m 64.728707,15.93269 c -3.14794,0 -5.7034,-2.2409 -5.7034,-5.00001 0,-2.7585 2.55546,-4.99941 5.7034,-4.99941 3.14864,0 5.7034,2.24091 5.7034,4.99941 0,2.7585 -2.55476,5.00001 -5.7034,5.00001 z"
     style="fill:#864a05;fill-opacity:1;fill-rule:nonzero;stroke-width:0.64807487" /></svg>