<?xml version="1.0" encoding="UTF-8"?>
<svg enable-background="new 0 0 1000 1000" version="1.1" viewBox="0 0 250 250" xmlns="http://www.w3.org/2000/svg">
<g transform="translate(-377.12 -363.96)">
<g transform="matrix(.25764 0 0 .25764 372.76 360.18)">
<path d="m523.18 333.64c-6.767-8.9466-39.128-43.915-71.913-77.707-32.785-33.792-62.879-68.403-66.876-76.912-21.639-46.067 6.8448-103.57 58.464-118.02 28.702-8.036 50.915-2.1933 74.096 19.489l19.768 18.491 12.364-13.161c15.465-16.462 41.704-28.855 61.092-28.855 50.321 0 96.821 57.862 83.976 104.5-6.4364 23.367-15.801 35.371-75.352 96.589-29.472 30.297-60.274 63.358-68.45 73.47l-14.865 18.385z" fill="#f00"/>
<path d="m225.5 709.11c-73.376-69.687-98.379-95.939-98.379-103.29 0-7.0853 15.306-24.598 54.437-62.286l54.437-52.429 98.694-54.504c86.835-47.955 100.53-54.257 114-52.449 8.4154 1.1303 43.12 17.553 77.121 36.496l61.82 34.441h55.489c30.519 0 60.701 1.9817 67.072 4.4039 22.591 8.5891 29.46 30.908 15.602 50.693l-7.2651 10.372 14.68-8.813c8.0742-4.8471 54.337-34.763 102.81-66.479s94.476-58.857 102.24-60.314c16.17-3.0335 37.794 6.1882 44.68 19.054 7.2939 13.629 5.1567 40.456-4.1673 52.309-4.6916 5.9644-53.791 48.844-109.11 95.288-55.319 46.444-123.46 104.01-151.43 127.93-74.396 63.632-66.985 61.296-199.69 62.934l-110.71 1.3666-28.589 29.354c-43.39 44.55-36.206 47.545-153.74-64.081zm145.26-4.0233 29.434-29.661h213.42l63.797-49.788c35.089-27.383 63.869-51.184 63.956-52.89 0.0873-1.706-18.183 3.5376-40.601 11.653l-40.76 14.754h-136.36c-100.41 0-137.7-1.3406-141.44-5.0847-8.1055-8.1055-5.9069-20.183 4.4492-24.44 5.2436-2.1557 77.788-12.051 161.21-21.99 83.422-9.9386 148.25-19.305 144.07-20.814-4.1848-1.509-30.873-4.0761-59.307-5.7048l-51.698-2.9612-65.439-35.774c-35.991-19.676-67.553-35.774-70.137-35.774s-41.398 19.362-86.253 43.026c-64.04 33.786-90.375 50.393-122.63 77.331-22.589 18.867-41.18 35.618-41.314 37.224-0.26498 3.1883 140.07 130.55 143.85 130.55 1.2763 0 15.566-13.347 31.754-29.661z" fill="#864a05"/>
<path d="m113.33 845.78c-53.008-53.331-96.378-98.736-96.378-100.9s18.637-22.501 41.417-45.195l41.417-41.261 89.939 90.295c110.84 111.28 108.34 104.07 54.962 158.42l-34.977 35.612z" fill="#864a05" stroke-opacity="0"/>
</g>
</g>
</svg>
