<?xml version="1.0" encoding="UTF-8"?>
<svg width="250" height="250" preserveAspectRatio="xMidYMid" version="1.1" viewBox="0 0 25.600048 25.6" xmlns="http://www.w3.org/2000/svg">
<path d="m3.1049 12.773-0.029334 0.03634c1e-3 -0.0015 0.00931-0.0036 0.024028-0.01051a0.28133 0.28133 0 0 0 0.00531 -0.02583m-0.171 1.0247s-0.0015 1e-4 -0.0013 5.01e-4c-1e-3 0.03204 0 0.06548-7.008e-4 0.09952 0.010813-0.0045 0.020624-0.0067 0.030436-0.0098l-0.028433-0.09011m9.0149 6.8181c-1e-3 0.0033-0.0017 0.0075-0.0017 0.0075l8e-3 -0.01662c-0.0014 2e-3 -0.0047 0.0053-0.0063 0.0091m0.089 0.03344-0.0068 0.01402 0.0051-0.0084 0.0017-0.0056m0.20284-0.38816-6e-3 0.01001a0.061372 0.061372 0 0 0 6e-3 -0.01001m0.07519 0.05887-0.0013 0.0015 4e-4 -1e-4s5.01e-4 -5.01e-4 1e-3 -0.0014" fill="#0097e8" stroke-width=".10012"/>
<path d="m12.316 20.32-4e-4 9.01e-4 0.0013-5e-4 -9.01e-4 -4.01e-4m6.4258-2.6262s-2e-4 0.0015 4e-4 0.0013c0.0036 1e-3 0.0045 0.0013 0.0078 0.0024l-0.0082-0.0037" fill="#0097e8" stroke-width=".10012"/>
<path d="m17.232 0.76463-0.0081 6.0071e-4 -0.01582 0.003004-0.0819 0.014317-0.06748 0.03454c-0.21436 0.10833-2.1247 1.1561-3.0563 4.4926-0.68981 2.4696-8.6501 6.08-11.381 7.1487l-0.27492 0.10482-0.051961 0.30236c-0.016019 0.09211-0.056767 0.37934-0.075589 0.78302-0.60211 0.26411-1.027 0.68981-1.2329 1.2485-0.026832 0.07299-0.050459 0.14918-0.069882 0.22707-0.20574 0.82357 0.02603 1.8707 0.64235 2.8553 0.70923 1.1344 1.8745 1.0956 2.5894 0.86141 0.19223 0.16329 0.39486 0.31837 0.61262 0.45113l0.00571 0.0038 0.19723 0.11323 0.19253-0.05567s1.722-0.5083 1.7794-0.52462c0.092108-0.01682 0.58529-0.0834 0.96113 0.18191 0.27873 0.19753 0.45133 0.55645 0.5127 1.0664 0.22897 1.9019 0.10472 2.5555 0.10232 2.5705l-0.00581 0.02343-0.0025 0.02233c-0.014717 0.10833-0.12715 1.0843 0.45013 1.733 0.21866 0.24629 0.62423 0.53763 1.315 0.52502l0.01652-6e-4 2.2997-0.20834 0.01832-2e-3s0.31737-0.15688 0.31817-0.15758c0.05206-0.05466 0.29825-0.32568 0.45473-0.72585l-0.02703 0.07589c0.04445-0.07499 0.27562-0.47686 0.41028-1.0165 0.11303-0.45584 0.15788-1.0112-0.03674-1.549-0.17841-0.49158-0.52371-0.87753-1.0256-1.154 0.02133-0.06267 0.04515-0.12435 0.06097-0.18952 0.13816-0.55385 0.09051-1.1486-0.35492-1.5664l-0.14948-0.13916c-0.58799-0.54364-0.78152-0.79704-0.73086-1.0026 0.0018-0.0097 0.0096-0.01782 0.01232-0.02683 0.07509-0.03854 0.15638-0.07609 0.24679-0.10933l0.07599-0.02873s0.01151-0.0087 0.02102-0.01632c0.22406-0.09491 2.0424-0.74287 6.3642 1.1452 0.40397 0.32398 2.4237 1.8381 4.2645 1.3734 0.96934-0.24429 1.7001-0.97034 2.1701-2.1576a4.645 4.645 0 0 0 0.18041 -0.56967c0.38194-1.533 0.24218-3.8436-0.40488-6.4794-0.71454-2.9118-1.9423-5.6911-3.2822-7.4352-1.2493-1.6249-2.6104-2.4021-3.9388-2.2466" fill="#ff8e3a" stroke-width=".10012"/>
<path d="m16.411 14.786c-0.04655-0.0888-0.0893-0.18021-0.13366-0.27082a21.188 21.188 0 0 1 -0.61572 -1.4523c-0.5959-1.6155-0.92538-3.1725-1.0314-3.7246-0.15388-0.87903-0.2549-1.8126-0.27582-2.7913 0 0-0.81996 5.6331 3.2576 10.346 0 0-0.56126-0.78062-1.2177-2.1334 0.01061 0.01702 0.01672 0.02633 0.01672 0.02633m1.8486-12.973s-3.2374-0.69031-1.4331 8.1862c0 0 2.3353 10.087 6.5535 7.5127 0 0-2.9958 2.3884-5.6171-3.9966-2.6213-6.3863-2.033-12.254 0.49668-11.702" fill="#864a05" stroke-width=".10012"/>
<path d="m21.009 8.5274-0.21976-0.00621-4.1844 0.47456 0.01131 0.097314 4.1197-0.46615c0.03955-0.048857 0.0857-0.080494 0.13916-0.096613 0.04285-0.012615 0.0892 0.075488 0.13686 0.086001l-3e-3 -0.088904" fill="#f8941e" stroke-width=".10012"/>
<path d="m18.228 14.114 3.3985-2.4559c-0.29725-0.10893-0.65056-0.65777-0.86532-1.3891-0.19283-0.65717-0.21675-1.2917-0.06067-1.5791 0.01422-0.02523 0.02963-0.048056 0.04585-0.066678l-3.9671 0.44352h-0.12815c0.27412 1.5691 0.75889 3.3015 1.563 5.0526l0.01382-0.0054" fill="#864a05" stroke-width=".10012"/>
<path d="m20.784 8.7359c-0.14547 0.26531-0.11904 0.87142 0.06858 1.5071 0.23698 0.80564 0.61152 1.3089 0.8546 1.3398a0.20724 0.20724 0 0 0 0.06668 -0.0058c0.04806-0.01402 0.0899-0.05276 0.12414-0.11413 0.14467-0.26621 0.11734-0.87192-0.07008-1.507-0.18562-0.63524-0.49008-1.1594-0.75529-1.3052-0.05286-0.028734-0.10112-0.041148-0.14487-0.034841-0.0066 0.0019-0.01392 3e-3 -0.02082 0.00501-0.04736 0.014417-0.0892 0.052461-0.12294 0.11514" fill="#864a05" stroke-width=".10012"/>
<path d="m21.069 8.6206s-0.17801-0.024629-0.49078 0.015819l0.07189-0.10082s0.27172-0.073887 0.46705 0.032738l-0.04816 0.052261m0.10803 2.694 0.49568 0.4245 0.1712-0.087s-0.50459-0.254-0.66688-0.3374" fill="#f8941e" stroke-width=".10012"/>
<path d="m20.7 8.6896c-0.15608 0.28734-0.13216 0.92188 0.06067 1.5791 0.21475 0.73146 0.56807 1.2802 0.86532 1.3891l0.08059-0.05857 2e-4 -0.01652c-0.24308-0.030834-0.61762-0.53412-0.8546-1.3398-0.18762-0.63575-0.21405-1.2418-0.06858-1.5072 0.03374-0.062573 0.07559-0.10062 0.12294-0.11514 7e-3 -2e-3 0.01422-3e-3 0.02082-0.00501l-0.0017-0.013516-0.17981 0.020824a0.41018 0.41018 0 0 0 -0.04585 0.066678" fill="#ff8e3a" stroke-width=".10012"/>
<path d="m18.236 14.215 3.5261-2.5386-0.0012-1e-3c-0.04345 0.0058-0.0897-8.01e-4 -0.13646-0.01822l-3.4437 2.4786 0.05526 0.07919m2.3368-5.4609-3.8906 0.40548 0.19763 1.0887 3.4716-0.3412s0.45934 1.1198 0.82276 1.5454c0 0-0.77451-1.3332-0.6014-2.6984" fill="#864a05" stroke-width=".10012"/>
<path d="m22.905 7.7885c0.01492 0.041348 0.03064 0.082897 0.04605 0.12415 0.04175 0.11614 0.0829 0.23267 0.12344 0.34931 0.01542 0.044853 0.03144 0.090306 0.04696 0.13516 0.03915 0.11493 0.07709 0.23057 0.11534 0.34661 0.01502 0.046855 0.03044 0.09391 0.04515 0.14087 0.03674 0.11393 0.07158 0.22777 0.10682 0.3419l0.04545 0.15098c0.03304 0.11193 0.06538 0.22376 0.09691 0.33619 0.01432 0.052261 0.02933 0.10452 0.04395 0.15618 0.03004 0.11083 0.05937 0.22116 0.0887 0.33179 0.01402 0.05406 0.02773 0.10793 0.04105 0.16229 0.02783 0.10833 0.05466 0.21696 0.0807 0.32538 0.01341 0.05587 0.02633 0.11143 0.03945 0.1673 0.02453 0.10612 0.04806 0.21225 0.07118 0.31887 0.01272 0.05677 0.02453 0.11343 0.03664 0.1697 0.02183 0.10452 0.04305 0.20854 0.06358 0.31237 0.01121 0.05807 0.02203 0.11614 0.03264 0.1742a17.03 17.03 0 0 1 0.05496 0.30316c0.01011 0.05907 0.01952 0.11804 0.02973 0.17631 0.01592 0.09892 0.03154 0.19723 0.04636 0.29515 0.0088 0.05947 0.01672 0.11824 0.02503 0.17721 0.01402 0.09671 0.02693 0.19222 0.03895 0.28744 0.0073 0.05827 0.01342 0.11614 0.02002 0.1742 0.01131 0.09441 0.02153 0.18842 0.03054 0.28133 0.0056 0.05737 0.01051 0.11383 0.01572 0.1713 0.0077 0.09091 0.01562 0.18271 0.02202 0.27292 0.0041 0.05647 0.0064 0.11163 0.0099 0.1672 0.0052 0.0891 0.01041 0.17831 0.01422 0.26531 2e-3 0.05436 0.0028 0.10753 0.0043 0.16159 0.0026 0.0868 0.0052 0.1725 0.0055 0.2568 1e-3 0.05236-4e-4 0.10232-6.01e-4 0.15368-9.01e-4 0.084-0.0011 0.1688-0.0034 0.2511-0.0018 0.04755-0.0047 0.09291-0.0065 0.13936-0.0037 0.0835-7e-3 0.1676-0.01281 0.24809-0.0032 0.04155-0.0077 0.08129-0.01101 0.12244-7e-3 0.0828-0.01402 0.1663-0.02333 0.24699-4e-3 0.03264-0.0093 0.06368-0.01362 0.09561-0.01081 0.086-0.02203 0.1717-0.03604 0.2543-3e-3 0.01702-0.0067 0.03254-0.0094 0.04906-0.03704 0.20494-0.082 0.39897-0.13626 0.57918-0.01872 0.06608-0.04295 0.12685-0.06508 0.18942-0.01151 0.03084-0.02132 0.06478-0.03324 0.09471-0.23998 0.60471-0.55205 1.0632-0.93019 1.3786-0.01682 0.01442-0.03284 0.03124-0.05006 0.04555-0.02743 0.02102-0.05707 0.03744-0.0846 0.05787-0.05476 0.03845-0.10843 0.07909-0.16539 0.11213-9e-3 0.0054-0.01922 0.0089-0.02883 0.01472-0.07779 0.04355-0.15668 0.0838-0.23898 0.11714-0.09131 0.03804-0.18622 0.06898-0.28383 0.09381-1.7268 0.43531-3.8019-1.2901-3.8216-1.3072l-0.0047-0.0042-0.0052-0.0023-0.0027-0.0016c-0.11233-0.04936-0.22086-0.09411-0.32959-0.14036-2.4492-1.0382-4.0937-1.2693-5.0525-1.2745-0.53302-0.0013-0.91407 0.06187-1.1682 0.12865-0.23818 0.06157-0.36733 0.12715-0.40047 0.14587l-3e-3 1e-3v8.01e-4h-4e-4c-6e-3 0.0025-0.01191 0.0056-0.01802 8e-3 -0.1702 0.06458-0.32348 0.13696-0.45574 0.21996a1.846 1.846 0 0 0 -0.22236 0.1664c-0.2561 0.21986-0.41248 0.48507-0.45884 0.79754-0.11964 0.80725 0.5112 1.6566 0.87453 1.9333 0.5119 0.39006 0.41338 0.94271 0.39747 1.0192 0.0016-0.0039 0.0048-0.0072 0.0063-0.0091l-0.0082 0.01732s8.01e-4 -5e-3 0.0019-0.0083c-0.0025 0.0034-7e-3 0.01262-0.01021 0.01802l-4e-4 -1e-4c-8.01e-4 0.0017-0.0017 0.0034-3e-3 0.0047l5.01e-4 5e-4c-0.03204 0.05607-0.09251 0.19122-0.06358 0.39767 0.0098 0.07078 0.03424 0.14167 0.06157 0.21265l-4e-4 9.01e-4c7.01e-4 2e-3 0.0019 0.0044 0.0026 0.0064 0.01312 0.03294 0.02964 0.06608 0.04706 0.09952 0.03024 0.06157 0.06498 0.12344 0.11013 0.18572l8.01e-4 5.01e-4c0.13466 0.18822 0.32638 0.37944 0.57988 0.57267 0.31637 0.23838 0.48827 0.51791 0.5133 0.82937 0.0032 0.03454-4e-3 0.06648-0.0047 0.10022-5.01e-4 9.01e-4 -1e-3 0.0025-0.0014 0.0034-0.0039 0.14617-0.03084 0.28674-0.07809 0.41138l-0.0013 0.0026 0.03764 0.02163-0.04095-0.01542c-0.10953 0.27783-0.28203 0.48357-0.32608 0.53212l-0.43121 0.03975-1.8362 0.1665c-0.37847 0.005998-0.67281-0.10764-0.87615-0.3345-0.41619-0.46715-0.31307-1.2749-0.31207-1.2836 0.015418-0.072284 0.14767-0.74678-0.09341-2.7591-0.082497-0.67479-0.33369-1.1667-0.75048-1.4611-0.38966-0.27692-0.83268-0.31607-1.1186-0.30536-0.1715 0.0068-0.28674 0.03154-0.30005 0.03394l-1.5365 0.45453-0.22647 0.067079a4.3141 4.3141 0 0 1 -0.47596 -0.3397c-0.014217-0.01141-0.026731-0.02353-0.040848-0.03504a4.6775 4.6775 0 0 1 -0.16219 -0.14267c-0.033239-0.03084-0.064376-0.06307-0.095912-0.09441-1.2163-1.2061-1.4707-2.9097-1.4861-4.0416a10.402 10.402 0 0 1 -1.001e-4 -0.19673c3.003e-4 -0.02553 8.009e-4 -0.04936 0.0013-0.07429 6.007e-4 -0.03844 0.0015-0.07689 0.0028-0.11333l0.0029-0.0814c0.0016-0.03114 3e-3 -0.06077 0.0042-0.09031 0.0014-0.02553 0.0032-0.05206 0.00451-0.07679 0.0013-0.02663 0.0037-0.05146 0.00531-0.07639 4e-3 -0.05627 0.00841-0.10873 0.012815-0.15618 7.008e-4 -0.0074 0.0014-0.01602 0.0022-0.02323a5.4659 5.4659 0 0 1 0.011313 -0.10432c0.0025-0.02233 0.00481-0.04305 0.00731-0.06217l0.0022-0.02002c0.00521-0.04005 0.010012-0.07148 0.012715-0.09101 0.27583-0.10872 2.8457-1.1348 5.4849-2.5113 1.4031-0.73086 2.5736-1.4246 3.5092-2.0784 1.5598-1.0897 2.4663-2.069 2.7053-2.9268 0.86932-3.1128 2.6325-4.0702 2.7586-4.1347-3.01e-4 1.001e-4 -7.01e-4 2.002e-4 -1e-3 0h2.01e-4l0.0011-1.001e-4 -3e-4 1.001e-4a2.3347 2.3347 0 0 1 0.40908 -0.00881c0.04656 3e-3 0.09301 0.014217 0.13936 0.020023 0.09081 0.011313 0.18171 0.021826 0.27322 0.043451 0.05957 0.014417 0.12014 0.037244 0.18021 0.056166 0.07809 0.024028 0.15558 0.046454 0.23378 0.078092 0.06778 0.027632 0.13576 0.063475 0.20354 0.096613 0.07038 0.03424 0.14066 0.067179 0.21085 0.10743 0.07288 0.041449 0.14537 0.090306 0.21826 0.13836 0.06548 0.043251 0.13125 0.0854 0.19713 0.13406 0.07549 0.055465 0.15008 0.11784 0.22566 0.17981a5.7616 5.7616 0 0 1 0.18872 0.16169 7.0622 7.0622 0 0 1 0.22667 0.21766c0.06287 0.063074 0.12585 0.12655 0.18872 0.19403 0.07339 0.079093 0.14637 0.16209 0.21896 0.24729 0.09281 0.10883 0.18612 0.21715 0.27772 0.33619 0.0077 0.00971 0.01522 0.018021 0.02263 0.027833 0.33069 0.43 0.64796 0.91507 0.94791 1.4408 4e-3 0.00631 8e-3 0.012615 0.01101 0.019122a14.853 14.853 0 0 1 0.20324 0.36873c0.0074 0.013816 0.01542 0.027833 0.02323 0.041849a26.356 26.356 0 0 1 0.18682 0.36202c0.01071 0.021425 0.02203 0.04265 0.03274 0.064375a19.724 19.724 0 0 1 0.1736 0.35822c0.01262 0.027332 0.02543 0.053863 0.03834 0.081095 0.05506 0.11744 0.10883 0.23678 0.16219 0.35662 0.01402 0.031537 0.02833 0.062273 0.04255 0.09411 0.05166 0.11824 0.10242 0.23728 0.15258 0.35742 0.01462 0.03424 0.02903 0.06858 0.04335 0.10292 0.04906 0.11774 0.09641 0.23748 0.14367 0.35692 0.01482 0.037744 0.02994 0.075088 0.04475 0.11303 0.04555 0.11744 0.08981 0.23528 0.13386 0.35402zm-11.015 12.708c0.5128 0.18792 0.86782 0.47195 1.0637 0.84649 0.01802 0.04906 0.17711 0.55345-0.22757 1.2767-0.09211-0.15889-0.22476-0.30606-0.40157-0.44052-0.61772-0.46905-0.7663-0.84019-0.77571-1.08zm-0.17761-1.8025 0.14817 0.13886c0.03875 0.03614 0.07008 0.07559 0.09812 0.11574 0.03844 0.11914 0.06688 0.45724-0.45013 1.0633-0.06778-0.12174-0.16519-0.24288-0.30736-0.35071-0.3381-0.2568-0.95072-1.0863-0.83798-1.8428 0.04626-0.31677 0.20945-0.58148 0.48897-0.79664-0.27032 0.62674 0.32668 1.1793 0.86021 1.6722zm-9.8299-1.0544c-0.58028-0.93079-0.77741-1.8974-0.52211-2.5856 0.17891-0.48287 0.57067-0.82507 1.164-1.0166 2.002e-4 0.3397 0.021025 0.73226 0.083998 1.1493 0.13145 0.88163 0.47756 2.0081 1.3233 2.9104 0.027332 0.02833 0.050359 0.05937 0.078692 0.0878-0.19553 0.09021-1.418 0.58749-2.1278-0.54534zm19.677-15.087c-1.7746-2.3087-3.4615-2.6394-4.562-2.5107l-0.24929 0.042149-0.15688 0.079894c-0.39506 0.19963-2.4185 1.377-3.408 4.9215-0.49138 1.7585-6.686 5.0166-10.964 6.691l-0.64075 0.24469-0.11934 0.68891c-0.00701 0.04105-0.03404 0.20674-0.057267 0.46655-0.57748 0.345-0.99497 0.83758-1.2183 1.4431a2.7242 2.7242 0 0 0 -0.091407 0.29845c-0.2528 1.0114 0.011914 2.2458 0.72585 3.3867 0.7672 1.2274 1.9963 1.4586 3.0114 1.2499 0.13846 0.10542 0.26932 0.19573 0.39046 0.26892l0.49838 0.28834 0.47556-0.13806s1.4595-0.4309 1.733-0.5112c0.10452-0.01232 0.30326-9e-3 0.41539 0.07048 0.10863 0.07679 0.19102 0.29074 0.22717 0.58679 0.19553 1.6213 0.12064 2.2754 0.11013 2.3558l-0.014817 0.0847c-0.031437 0.23097-0.14917 1.4221 0.61732 2.2833 0.44502 0.50199 1.099 0.7701 1.8547 0.75579l2.3618-0.21195 0.14127-0.01442 0.40077-0.19913 0.11443-0.04375 0.10622-0.11193c0.07959-0.0826 0.32888-0.36132 0.52401-0.77691l2e-4 6e-4c0.09711-0.16619 0.3386-0.61422 0.48437-1.1988 0.1748-0.70513 0.15588-1.3611-0.05767-1.9496-0.17711-0.48687-0.47456-0.89665-0.88764-1.2226 0.12164-0.78212-0.09011-1.4688-0.61012-1.9566l-0.15138-0.14066c-0.05627-0.05156-0.10582-0.09922-0.15128-0.14247 0.71103-0.09641 2.3605-0.07509 5.3176 1.2043 0.69321 0.54053 2.7597 1.9581 4.7884 1.4455a3.3983 3.3983 0 0 0 0.39446 -0.12414l4e-4 -2e-4c0.99987-0.38395 1.7565-1.2079 2.2479-2.4485a5.3843 5.3843 0 0 0 0.20774 -0.65477c0.41168-1.6527 0.26792-4.0712-0.40367-6.8097-0.73626-2.9983-2.0094-5.8736-3.4056-7.6911z" fill="#864a05" stroke-width=".10012"/>
</svg>
