<?xml version="1.0" encoding="UTF-8" standalone="no"?>
<!-- Generator: Adobe Illustrator 19.0.0, SVG Export Plug-In . SVG Version: 6.00 Build 0)  -->

<svg
   xmlns:dc="http://purl.org/dc/elements/1.1/"
   xmlns:cc="http://creativecommons.org/ns#"
   xmlns:rdf="http://www.w3.org/1999/02/22-rdf-syntax-ns#"
   xmlns:svg="http://www.w3.org/2000/svg"
   xmlns="http://www.w3.org/2000/svg"
   xmlns:sodipodi="http://sodipodi.sourceforge.net/DTD/sodipodi-0.dtd"
   xmlns:inkscape="http://www.inkscape.org/namespaces/inkscape"
   version="1.1"
   id="Layer_1"
   x="0px"
   y="0px"
   viewBox="0 0 250 249.99986"
   xml:space="preserve"
   sodipodi:docname="fleet.svg"
   width="250"
   height="249.99986"
   inkscape:version="0.92.1 unknown"><metadata
     id="metadata1025"><rdf:RDF><cc:Work
         rdf:about=""><dc:format>image/svg+xml</dc:format><dc:type
           rdf:resource="http://purl.org/dc/dcmitype/StillImage" /><dc:title></dc:title></cc:Work></rdf:RDF></metadata><defs
     id="defs1023" /><sodipodi:namedview
     pagecolor="#ffffff"
     bordercolor="#666666"
     borderopacity="1"
     objecttolerance="10"
     gridtolerance="10"
     guidetolerance="10"
     inkscape:pageopacity="0"
     inkscape:pageshadow="2"
     inkscape:window-width="1920"
     inkscape:window-height="1056"
     id="namedview1021"
     showgrid="false"
     fit-margin-top="0"
     fit-margin-left="0"
     fit-margin-right="0"
     fit-margin-bottom="0"
     inkscape:zoom="1.6386719"
     inkscape:cx="109.71814"
     inkscape:cy="181.21357"
     inkscape:window-x="0"
     inkscape:window-y="24"
     inkscape:window-maximized="1"
     inkscape:current-layer="Layer_1" /><path
     style="fill:#ff6464;stroke-width:0.48828098"
     d="m 231.59216,131.89885 -18.31639,14.65283 V 99.138127 h 17.2412 c 2.38037,0 4.31054,1.930173 4.31054,4.310543 v 21.71874 c 0,2.61865 -1.18994,5.09521 -3.23535,6.73144 z"
     id="path946"
     inkscape:connector-curvature="0" /><path
     style="fill:#ffb450;stroke-width:0.48828098"
     d="m 231.59216,110.34711 -18.31591,14.65282 V 77.586377 h 17.24121 c 2.38037,0 4.31054,1.93018 4.31054,4.31055 v 21.718733 c -4.9e-4,2.61866 -1.19043,5.09571 -3.23584,6.73145 z"
     id="path948"
     inkscape:connector-curvature="0" /><path
     style="fill:#ffe164;stroke-width:0.48828098"
     d="M 231.59216,88.795357 213.27577,103.44818 V 56.034637 h 17.2412 c 2.38037,0 4.31054,1.93017 4.31054,4.31054 v 21.71874 c 0,2.61865 -1.18994,5.0957 -3.23535,6.73144 z"
     id="path950"
     inkscape:connector-curvature="0" /><path
     style="fill:#a5eb78;stroke-width:0.48828098"
     d="m 231.59216,67.243617 -18.31639,14.65282 v -47.41355 h 17.2412 c 2.38037,0 4.31054,1.93018 4.31054,4.31055 v 21.71873 c 0,2.61865 -1.18994,5.0957 -3.23535,6.73145 z"
     id="path952"
     inkscape:connector-curvature="0" /><path
     style="fill:#00d2ff;stroke-width:0.48828098"
     d="m 231.59216,45.691867 -18.31639,14.65282 v -47.41354 h 17.2412 c 2.38037,0 4.31054,1.93017 4.31054,4.31054 v 21.71874 c 0,2.61865 -1.18994,5.0957 -3.23535,6.73144 z"
     id="path954"
     inkscape:connector-curvature="0" /><path
     style="fill:#cccccc;fill-opacity:1;stroke-width:0.48828098"
     d="M 217.58631,249.99986 H 32.241691 c -2.38037,0 -4.31055,-1.93018 -4.31055,-4.31055 V 4.3105473 c 0,-2.38037 1.93018,-4.3105499708984 4.31055,-4.3105499708984 H 217.58631 c 2.38037,0 4.31055,1.9301799708984 4.31055,4.3105499708984 V 245.6898 c 0,2.37988 -1.93018,4.31006 -4.31055,4.31006 z"
     id="path956"
     inkscape:connector-curvature="0" /><path
     style="fill:#5b5d6e;stroke-width:0.48828098"
     d="m 66.724581,249.99986 h -34.48289 c -2.38037,0 -4.31055,-1.93018 -4.31055,-4.31055 V 4.3105473 c 0,-2.38037 1.93018,-4.3105499708984 4.31055,-4.3105499708984 h 34.48289 z"
     id="path958"
     inkscape:connector-curvature="0" /><g
     id="g982"
     transform="matrix(0.48828097,0,0,0.48828097,-0.085929,-2.6708984e-6)"><path
       style="fill:#707487"
       d="m 75.034,88.276 h -35.31 c -4.875,0 -8.828,-3.953 -8.828,-8.828 0,-4.875 3.953,-8.828 8.828,-8.828 h 35.31 c 4.875,0 8.828,3.953 8.828,8.828 0,4.875 -3.952,8.828 -8.828,8.828 z"
       id="path960"
       inkscape:connector-curvature="0" /><path
       style="fill:#707487"
       d="m 75.034,44.138 h -35.31 c -4.875,0 -8.828,-3.953 -8.828,-8.828 0,-4.875 3.953,-8.828 8.828,-8.828 h 35.31 c 4.875,0 8.828,3.953 8.828,8.828 0,4.875 -3.952,8.828 -8.828,8.828 z"
       id="path962"
       inkscape:connector-curvature="0" /><path
       style="fill:#707487"
       d="m 75.034,485.517 h -35.31 c -4.875,0 -8.828,-3.953 -8.828,-8.828 0,-4.875 3.953,-8.828 8.828,-8.828 h 35.31 c 4.875,0 8.828,3.953 8.828,8.828 0,4.876 -3.952,8.828 -8.828,8.828 z"
       id="path964"
       inkscape:connector-curvature="0" /><path
       style="fill:#707487"
       d="m 75.034,132.414 h -35.31 c -4.875,0 -8.828,-3.953 -8.828,-8.828 0,-4.875 3.953,-8.828 8.828,-8.828 h 35.31 c 4.875,0 8.828,3.953 8.828,8.828 0,4.875 -3.952,8.828 -8.828,8.828 z"
       id="path966"
       inkscape:connector-curvature="0" /><path
       style="fill:#707487"
       d="m 75.034,176.552 h -35.31 c -4.875,0 -8.828,-3.953 -8.828,-8.828 0,-4.875 3.953,-8.828 8.828,-8.828 h 35.31 c 4.875,0 8.828,3.953 8.828,8.828 0,4.875 -3.952,8.828 -8.828,8.828 z"
       id="path968"
       inkscape:connector-curvature="0" /><path
       style="fill:#707487"
       d="m 75.034,220.69 h -35.31 c -4.875,0 -8.828,-3.953 -8.828,-8.828 0,-4.875 3.953,-8.828 8.828,-8.828 h 35.31 c 4.875,0 8.828,3.953 8.828,8.828 0,4.875 -3.952,8.828 -8.828,8.828 z"
       id="path970"
       inkscape:connector-curvature="0" /><path
       style="fill:#707487"
       d="m 75.034,264.828 h -35.31 c -4.875,0 -8.828,-3.953 -8.828,-8.828 0,-4.875 3.953,-8.828 8.828,-8.828 h 35.31 c 4.875,0 8.828,3.953 8.828,8.828 0,4.875 -3.952,8.828 -8.828,8.828 z"
       id="path972"
       inkscape:connector-curvature="0" /><path
       style="fill:#707487"
       d="m 75.034,308.966 h -35.31 c -4.875,0 -8.828,-3.953 -8.828,-8.828 0,-4.875 3.953,-8.828 8.828,-8.828 h 35.31 c 4.875,0 8.828,3.953 8.828,8.828 0,4.875 -3.952,8.828 -8.828,8.828 z"
       id="path974"
       inkscape:connector-curvature="0" /><path
       style="fill:#707487"
       d="m 75.034,353.103 h -35.31 c -4.875,0 -8.828,-3.953 -8.828,-8.828 0,-4.875 3.953,-8.828 8.828,-8.828 h 35.31 c 4.875,0 8.828,3.953 8.828,8.828 0,4.876 -3.952,8.828 -8.828,8.828 z"
       id="path976"
       inkscape:connector-curvature="0" /><path
       style="fill:#707487"
       d="m 75.034,397.241 h -35.31 c -4.875,0 -8.828,-3.953 -8.828,-8.828 0,-4.875 3.953,-8.828 8.828,-8.828 h 35.31 c 4.875,0 8.828,3.953 8.828,8.828 0,4.875 -3.952,8.828 -8.828,8.828 z"
       id="path978"
       inkscape:connector-curvature="0" /><path
       style="fill:#707487"
       d="m 75.034,441.379 h -35.31 c -4.875,0 -8.828,-3.953 -8.828,-8.828 0,-4.875 3.953,-8.828 8.828,-8.828 h 35.31 c 4.875,0 8.828,3.953 8.828,8.828 0,4.875 -3.952,8.828 -8.828,8.828 z"
       id="path980"
       inkscape:connector-curvature="0" /></g><path
     style="fill:#464655;stroke-width:0.48828098"
     d="m 53.793431,241.37926 v 0 c -2.38036,0 -4.31054,-1.93018 -4.31054,-4.31055 V 12.931147 c 0,-2.38037 1.93018,-4.3105497 4.31054,-4.3105497 v 0 c 2.38037,0 4.31055,1.9301797 4.31055,4.3105497 V 237.06871 c -4.9e-4,2.38037 -1.93018,4.31055 -4.31055,4.31055 z"
     id="path984"
     inkscape:connector-curvature="0" /><g
     id="g990"
     transform="matrix(0.48828097,0,0,0.48828097,-0.085929,-2.6708984e-6)" /><g
     id="g992"
     transform="matrix(0.48828097,0,0,0.48828097,-0.085929,-2.6708984e-6)" /><g
     id="g994"
     transform="matrix(0.48828097,0,0,0.48828097,-0.085929,-2.6708984e-6)" /><g
     id="g996"
     transform="matrix(0.48828097,0,0,0.48828097,-0.085929,-2.6708984e-6)" /><g
     id="g998"
     transform="matrix(0.48828097,0,0,0.48828097,-0.085929,-2.6708984e-6)" /><g
     id="g1000"
     transform="matrix(0.48828097,0,0,0.48828097,-0.085929,-2.6708984e-6)" /><g
     id="g1002"
     transform="matrix(0.48828097,0,0,0.48828097,-0.085929,-2.6708984e-6)" /><g
     id="g1004"
     transform="matrix(0.48828097,0,0,0.48828097,-0.085929,-2.6708984e-6)" /><g
     id="g1006"
     transform="matrix(0.48828097,0,0,0.48828097,-0.085929,-2.6708984e-6)" /><g
     id="g1008"
     transform="matrix(0.48828097,0,0,0.48828097,-0.085929,-2.6708984e-6)" /><g
     id="g1010"
     transform="matrix(0.48828097,0,0,0.48828097,-0.085929,-2.6708984e-6)" /><g
     id="g1012"
     transform="matrix(0.48828097,0,0,0.48828097,-0.085929,-2.6708984e-6)" /><g
     id="g1014"
     transform="matrix(0.48828097,0,0,0.48828097,-0.085929,-2.6708984e-6)" /><g
     id="g1016"
     transform="matrix(0.48828097,0,0,0.48828097,-0.085929,-2.6708984e-6)" /><g
     id="g1018"
     transform="matrix(0.48828097,0,0,0.48828097,-0.085929,-2.6708984e-6)" /><g
     id="g4655"
     transform="matrix(0.51866722,0,0,0.51866722,78.15704,62.013018)"><rect
       y="97.044014"
       x="172.54294"
       height="98.594849"
       width="71.898857"
       id="rect4513"
       style="opacity:1;fill:#ff9038;fill-opacity:1;stroke:none;stroke-width:3.90788245;stroke-miterlimit:4;stroke-dasharray:none;stroke-opacity:1" /><rect
       y="129.99187"
       x="3.9629948"
       height="71.277039"
       width="34.877522"
       id="rect4511"
       style="opacity:1;fill:#ff9038;fill-opacity:1;stroke:none;stroke-width:4.21785784;stroke-miterlimit:4;stroke-dasharray:none;stroke-opacity:1" /><rect
       y="65.610664"
       x="26.877501"
       height="104.04014"
       width="160.65387"
       id="rect4509"
       style="opacity:1;fill:#ff9038;fill-opacity:1;stroke:none;stroke-width:4.04915094;stroke-miterlimit:4;stroke-dasharray:none;stroke-opacity:1" /><path
       style="fill:#864a05;fill-opacity:1;stroke-width:0.6067977"
       d="m 130.60046,195.60556 c -3.15959,-2.32161 -3.49394,-5.81009 -3.49394,-5.81009 l -1.18386,-7.56859 H 88.177413 l -1.1875,7.56859 c 0,0 -0.3301,3.48848 -3.48787,5.81009 -3.15414,2.32403 -5.64686,4.31615 -3.15414,4.65353 2.39989,0.32221 25.034047,0.0291 26.703957,0 1.67415,0.0291 24.30346,0.32221 26.70577,0 2.48727,-0.33738 -0.006,-2.32464 -3.15717,-4.65353 z"
       id="path6"
       inkscape:connector-curvature="0" /><path
       style="fill:#864a05;fill-opacity:1;stroke-width:0.6067977"
       d="m 42.802293,132.08051 c 0,-3.50122 -2.84042,-6.34164 -6.34224,-6.34164 H 6.342857 C 2.841027,125.73887 0,128.57929 0,132.08051 v 66.57663 C 0,202.16261 2.841027,205 6.342857,205 h 30.119616 c 3.50001,0 6.34225,-2.83739 6.34225,-6.34286 V 132.08051 Z M 18.25551,132.8742 h 6.341643 c 0.43811,0 0.79248,0.35377 0.79248,0.78884 0,0.43932 -0.35437,0.79612 -0.79248,0.79612 H 18.25551 c -0.438108,0 -0.793692,-0.35923 -0.793692,-0.79612 6.07e-4,-0.43993 0.35619,-0.78884 0.793692,-0.78884 z m 2.906563,68.37579 c -1.75183,0 -3.172948,-1.41869 -3.172948,-3.17173 0,-1.75061 1.421118,-3.17173 3.172948,-3.17173 1.75061,0 3.17052,1.41626 3.17052,3.17173 0,1.75304 -1.41748,3.17173 -3.17052,3.17173 z m 17.67844,-8.93024 H 3.962996 V 139.2122 h 34.878127 v 53.10755 z"
       id="path8"
       inkscape:connector-curvature="0" /><path
       style="fill:#864a05;fill-opacity:1;stroke-width:0.6067977"
       d="m 241.10682,89.26668 h -65.22894 c -4.91202,0 -8.89383,3.97938 -8.89383,8.89262 v 93.35826 c 0,4.91263 3.98241,8.89686 8.89383,8.89686 h 65.22894 c 4.91506,0 8.89383,-3.98423 8.89383,-8.89686 V 98.15748 c -0.002,-4.91324 -3.9812,-8.8908 -8.89383,-8.8908 z m -45.38544,106.19931 c -2.45571,0 -4.45025,-1.98666 -4.45025,-4.44055 0,-2.45631 1.99454,-4.44782 4.45025,-4.44782 2.45147,0 4.43873,1.99151 4.43873,4.44782 6.1e-4,2.45389 -1.98726,4.44055 -4.43873,4.44055 z m 12.76885,0 c -2.45147,0 -4.44358,-1.98666 -4.44358,-4.44055 0,-2.45631 1.99211,-4.44782 4.44358,-4.44782 2.45874,0 4.4454,1.99151 4.4454,4.44782 0,2.45389 -1.98423,4.44055 -4.4454,4.44055 z m 12.78098,0 c -2.45875,0 -4.44601,-1.98666 -4.44601,-4.44055 0,-2.45631 1.98726,-4.44782 4.44601,-4.44782 2.45328,0 4.44297,1.99151 4.44297,4.44782 0,2.45389 -1.98969,4.44055 -4.44297,4.44055 z M 244.44178,182.6219 H 172.54292 V 97.04401 h 71.89886 z"
       id="path10"
       inkscape:connector-curvature="0" /><path
       style="fill:#864a05;fill-opacity:1;stroke-width:0.6067977"
       sodipodi:nodetypes="ccssssccccc"
       d="m 186.76018,91.07593 h 11.39811 V 61.96807 c 0,-4.02853 -3.26397,-7.290066 -7.29007,-7.290066 H 23.232463 c -4.02489,0 -7.290066,3.261536 -7.290066,7.290066 l -0.465433,63.72074 11.400539,0.93086 V 65.61068 H 187.22561 Z"
       id="path12"
       inkscape:connector-curvature="0" /><path
       style="fill:#864a05;fill-opacity:1;fill-rule:nonzero;stroke-width:0.64807487"
       d="m 42.390563,153.07146 v 21.86535 H 166.93157 v -21.86535 z m 64.728707,15.93269 c -3.14794,0 -5.7034,-2.2409 -5.7034,-5.00001 0,-2.7585 2.55546,-4.99941 5.7034,-4.99941 3.14864,0 5.7034,2.24091 5.7034,4.99941 0,2.7585 -2.55476,5.00001 -5.7034,5.00001 z"
       id="path14"
       inkscape:connector-curvature="0" /></g></svg>