<?xml version="1.0" encoding="UTF-8" standalone="no"?>
<svg
   xmlns:dc="http://purl.org/dc/elements/1.1/"
   xmlns:cc="http://creativecommons.org/ns#"
   xmlns:rdf="http://www.w3.org/1999/02/22-rdf-syntax-ns#"
   xmlns:svg="http://www.w3.org/2000/svg"
   xmlns="http://www.w3.org/2000/svg"
   id="svg8"
   version="1.1"
   viewBox="0 0 66.145834 66.145956"
   height="250.00047"
   width="250">
  <defs
     id="defs2" />
  <metadata
     id="metadata5">
    <rdf:RDF>
      <cc:Work
         rdf:about="">
        <dc:format>image/svg+xml</dc:format>
        <dc:type
           rdf:resource="http://purl.org/dc/dcmitype/StillImage" />
        <dc:title></dc:title>
      </cc:Work>
    </rdf:RDF>
  </metadata>
  <g
     transform="translate(-83.387284,-135.22417)"
     id="layer1">
    <path
       id="path4707"
       d="m 84.974784,196.03798 c 0,-5.66513 0.116572,-6.3543 1.287513,-7.60643 2.162032,-2.31206 11.612425,-7.1062 18.099303,-9.1817 0.69357,-0.22178 0.87083,-0.49684 1.36223,-2.11275 0.69609,-2.28913 1.09067,-3.04947 1.58242,-3.04947 0.39354,0 0.52761,-0.55383 0.79365,-3.27845 0.1311,-1.34267 0.0641,-1.67031 -0.52382,-2.5586 -0.7595,-1.14766 -1.73823,-3.75023 -1.73823,-4.62213 0,-0.31677 -0.37168,-1.22559 -0.826,-2.01958 -0.76277,-1.33326 -0.82927,-1.65284 -0.86927,-4.17843 -0.0389,-2.45539 0.003,-2.73099 0.42475,-2.69763 0.42923,0.0341 0.46809,-0.34786 0.46809,-4.60078 0,-6.49797 0.14248,-7.04156 2.42993,-9.26624 1.41483,-1.37603 2.48281,-2.10738 4.58845,-3.14213 3.27456,-1.60915 5.08172,-2.10109 8.55566,-2.3289 l 2.6015,-0.17059 -0.32795,0.70888 c -0.18039,0.38987 -0.53861,0.777 -0.79605,0.86024 -0.72218,0.23346 -0.55519,0.81674 0.33999,1.18756 1.03519,0.42879 3.6379,2.95236 4.82517,4.67845 l 0.91992,1.3374 v 5.64308 c 0,4.84939 0.0565,5.63944 0.40121,5.61697 0.33354,-0.0221 0.3893,0.37737 0.33057,2.36662 -0.0802,2.71912 -0.44733,4.38684 -1.0133,4.60403 -0.23346,0.0897 -0.38718,0.51162 -0.38718,1.0628 0,1.31225 -0.93508,3.78676 -1.87114,4.95154 -0.75687,0.9418 -0.80363,1.13726 -0.80363,3.35951 0,2.15868 0.0493,2.38203 0.57826,2.62358 0.34261,0.15638 0.70613,0.70004 0.89208,1.33392 0.47014,1.60271 1.43697,3.34918 1.95207,3.52635 0.79447,0.27326 6.4902,2.68389 9.68389,4.09862 1.69179,0.74945 3.67779,1.61926 4.41334,1.93296 0.73555,0.31371 1.85818,0.92156 2.49475,1.35083 1.11667,0.75304 2.70794,2.87843 3.10744,4.1505 0.10647,0.33859 0.10647,2.89631 2.6e-4,5.68385 l -0.19271,5.06827 H 116.3664 84.974878 Z"
       style="fill:#e8e8e8;fill-opacity:1;stroke:none;stroke-width:0.26747516;stroke-opacity:1" />
  </g>
</svg>
