<?xml version="1.0" encoding="UTF-8" standalone="no"?>
<!-- Svg Vector Icons : http://www.onlinewebfonts.com/icon -->

<svg
   xmlns:dc="http://purl.org/dc/elements/1.1/"
   xmlns:cc="http://creativecommons.org/ns#"
   xmlns:rdf="http://www.w3.org/1999/02/22-rdf-syntax-ns#"
   xmlns:svg="http://www.w3.org/2000/svg"
   xmlns="http://www.w3.org/2000/svg"
   xmlns:sodipodi="http://sodipodi.sourceforge.net/DTD/sodipodi-0.dtd"
   xmlns:inkscape="http://www.inkscape.org/namespaces/inkscape"
   version="1.1"
   x="0px"
   y="0px"
   viewBox="0 0 250.00001 250.00009"
   enable-background="new 0 0 1000 1000"
   xml:space="preserve"
   id="svg5229"
   sodipodi:docname="json.svg"
   width="250"
   height="250.00009"
   inkscape:version="0.92.1 unknown"><defs
     id="defs5233" /><sodipodi:namedview
     pagecolor="#ffffff"
     bordercolor="#666666"
     borderopacity="1"
     objecttolerance="10"
     gridtolerance="10"
     guidetolerance="10"
     inkscape:pageopacity="0"
     inkscape:pageshadow="2"
     inkscape:window-width="1330"
     inkscape:window-height="731"
     id="namedview5231"
     showgrid="false"
     fit-margin-top="0"
     fit-margin-left="0"
     fit-margin-right="0"
     fit-margin-bottom="0"
     inkscape:pagecheckerboard="true"
     inkscape:zoom="1.3350176"
     inkscape:cx="219.84946"
     inkscape:cy="165.91394"
     inkscape:window-x="482"
     inkscape:window-y="297"
     inkscape:window-maximized="0"
     inkscape:current-layer="svg5229" /><metadata
     id="metadata5217"> Svg Vector Icons : http://www.onlinewebfonts.com/icon <rdf:RDF><cc:Work
     rdf:about=""><dc:format>image/svg+xml</dc:format><dc:type
       rdf:resource="http://purl.org/dc/dcmitype/StillImage" /><dc:title></dc:title></cc:Work></rdf:RDF></metadata><g
     id="g5227"
     transform="matrix(0.25510468,0,0,0.25510468,-3.514606,-2.5509875)"
     style="fill:#c96f07;fill-opacity:1;stroke:none;stroke-width:7.83991909;stroke-miterlimit:4;stroke-dasharray:none;stroke-opacity:1"><g
       transform="matrix(0.1,0,0,-0.1,0,512)"
       id="g5225"
       style="fill:#c96f07;fill-opacity:1;stroke:none;stroke-width:78.39918518;stroke-miterlimit:4;stroke-dasharray:none;stroke-opacity:1"><path
         d="M 1474.2,4992.7 C 1432,4977.4 1365,4931.4 1326.6,4891.1 1186.7,4741.6 1196.3,4965.8 1196.3,1520.5 V -1570.4 H 5000 8803.7 V 591.1 c 0,1483.1 -5.8,2184.5 -21.1,2236.2 -17.3,65.2 -168.6,226.1 -1038.6,1099.9 -687.8,689.9 -1044.3,1032.9 -1096,1057.8 -72.8,34.5 -172.5,36.4 -2586.9,34.5 -2115.5,0 -2521.7,-3.8 -2586.9,-26.8 z M 7437.5,3655.2 c 488.6,-486.7 887.2,-896.8 887.2,-910.2 0,-11.5 -17.3,-40.2 -38.3,-61.3 -38.3,-38.3 -59.4,-38.3 -944.7,-34.5 l -904.5,5.7 -5.7,904.5 c -3.8,885.3 -3.8,906.4 34.5,944.7 21.1,21.1 49.8,38.3 61.3,38.3 13.4,0 423.5,-398.6 910.2,-887.2 z M 3838.8,2097.3 c 115,-95.8 55.6,-264.4 -99.6,-289.4 -44.1,-5.7 -97.7,-32.6 -122.6,-55.6 -42.2,-42.1 -44.1,-53.6 -44.1,-415.8 0,-507.8 -28.7,-641.9 -174.4,-808.6 l -59.4,-67.1 59.4,-74.7 c 32.6,-42.2 82.4,-126.5 111.1,-187.8 51.7,-109.2 51.7,-120.7 59.4,-532.7 1.9,-231.9 9.6,-440.7 15.3,-463.7 9.6,-47.9 97.7,-101.6 166.7,-101.6 69,0 147.6,-88.1 147.6,-162.9 0,-78.6 -61.3,-157.1 -134.1,-172.5 -80.5,-17.2 -251,36.4 -346.8,111.1 -46,34.5 -103.5,103.5 -130.3,157.1 -47.9,92 -49.8,107.3 -59.4,555.7 -9.6,438.8 -11.5,463.7 -53.7,530.8 -55.6,90.1 -147.5,145.6 -262.5,162.9 -122.6,15.3 -189.7,74.7 -189.7,164.8 0,88.2 67.1,162.9 159,176.3 38.3,7.7 88.1,15.3 111.1,21.1 57.5,11.5 176.3,116.9 203.1,178.2 13.4,30.7 24.9,237.6 32.6,509.7 9.6,427.3 13.4,465.6 51.7,538.5 118.9,222.4 419.8,343.1 559.6,226.2 z m 2485.4,-3.8 c 99.6,-51.7 187.8,-147.6 235.7,-252.9 36.4,-78.6 40.2,-126.5 40.2,-488.6 0,-220.4 9.6,-435 19.2,-473.3 36.4,-128.4 166.7,-245.3 274,-245.3 126.5,0 224.2,-84.3 224.2,-191.6 0,-70.9 -93.9,-145.6 -201.2,-159 -120.7,-17.3 -222.3,-84.3 -270.2,-180.1 -32.6,-63.2 -38.3,-132.2 -46,-532.7 -9.6,-496.3 -11.5,-504 -126.5,-640 -74.7,-90.1 -226.1,-159.1 -348.8,-162.9 -90.1,-1.9 -109.2,3.8 -149.5,51.7 -97.7,113.1 -24.9,262.5 139.9,287.4 141.8,23 147.5,46 159,578.7 9.6,438.8 11.5,463.7 55.6,546.1 24.9,46 70.9,116.9 103.5,157.1 l 57.5,70.9 -63.2,72.8 c -134.1,151.4 -141.8,193.5 -153.3,710.9 l -9.6,467.6 -49.8,42.1 c -28.7,24.9 -86.2,49.8 -128.4,57.5 -153.3,23 -206.9,176.3 -97.7,283.6 53.7,55.6 65.1,57.5 159,47.9 57.6,-5.8 136.1,-26.9 176.4,-47.9 z m -1305,-816.4 c 130.3,-55.6 184,-241.4 107.3,-367.9 -70.9,-115 -243.4,-151.4 -352.6,-74.7 -155.2,109.2 -139.9,354.5 26.8,436.9 80.6,38.3 134.2,40.2 218.5,5.7 z M 5030.7,60.3 5086.3,4.7 v -310.4 -310.4 l -55.6,-55.6 c -76.7,-74.7 -157.1,-74.7 -233.8,1.9 l -57.5,57.5 5.8,318.1 5.7,318.1 53.7,46 c 74.8,63.3 155.2,59.4 226.1,-9.6 z"
         id="path5219"
         inkscape:connector-curvature="0"
         style="fill:#c96f07;fill-opacity:1;stroke:none;stroke-width:78.39918518;stroke-miterlimit:4;stroke-dasharray:none;stroke-opacity:1" /><path
         d="m 1196.4,-3197.2 c 0,-860.4 7.7,-1301.1 21.1,-1337.5 26.8,-72.8 107.3,-153.3 199.3,-203.1 l 76.7,-42.1 h 3506.7 3506.6 l 76.7,42.1 c 92,49.8 172.5,130.3 199.3,203.1 13.4,36.4 21.1,477.1 21.1,1337.5 v 1282 H 5000.1 1196.4 Z m 1954.5,139.9 c 0,-452.2 -7.7,-710.9 -23,-768.4 -72.8,-289.3 -505.9,-385.2 -921.7,-201.2 -49.8,21.1 -90.1,49.8 -90.1,61.3 0,19.2 90.1,172.5 103.5,172.5 1.9,0 55.6,-17.2 115,-38.3 243.4,-82.4 423.5,-67.1 490.6,44.1 36.4,57.5 38.3,101.6 38.3,737.7 v 674.5 h 143.7 143.7 z m 1188.1,643.8 c 122.6,-34.5 126.5,-42.2 65.2,-153.3 -44.1,-80.5 -59.4,-95.8 -92,-86.2 -176.3,53.7 -283.6,49.8 -387.1,-11.5 -111.1,-67.1 -145.6,-220.4 -69,-321.9 19.2,-26.8 138,-103.5 260.6,-168.6 256.8,-134.1 283.6,-155.2 352.6,-272.1 65.2,-113 69,-297 7.7,-415.8 -53.7,-105.4 -178.2,-208.9 -297,-249.1 -178.2,-59.4 -578.7,-5.8 -634.3,84.3 -7.7,11.5 -1.9,61.3 9.6,109.2 19.2,78.5 28.7,88.1 63.2,76.7 320,-93.9 410.1,-99.7 530.8,-38.3 103.5,53.6 143.7,203.1 84.3,314.3 -28.7,57.5 -126.5,126.5 -331.5,231.8 -149.5,78.6 -275.9,189.7 -318.1,275.9 -42.2,90 -40.2,287.4 5.7,385.1 55.6,122.6 174.4,214.6 337.3,260.6 67.1,19.2 316.2,5.7 412,-21.1 z m 1425.6,-24.9 c 277.9,-126.5 433.1,-421.6 433.1,-818.2 0,-383.2 -149.5,-676.4 -412,-804.8 -84.3,-42.2 -122.6,-47.9 -297,-47.9 -170.5,0 -214.6,5.8 -289.3,44.1 -270.2,132.2 -417.7,415.8 -419.6,801 0,467.6 197.4,779.9 550,870 116.7,28.6 319.9,7.5 434.8,-44.2 z m 1439.1,-553.8 325.7,-576.8 5.7,578.7 3.8,576.8 h 143.7 143.7 l -3.8,-847 -5.8,-848.9 -138,-5.7 -136,-5.7 -337.3,590.2 -337.2,590.2 v -590.2 -590.2 l -138,5.7 -139.9,5.7 -5.7,848.9 -3.8,847 h 147.5 l 149.5,-1.9 z"
         id="path5221"
         inkscape:connector-curvature="0"
         style="fill:#c96f07;fill-opacity:1;stroke:none;stroke-width:78.39918518;stroke-miterlimit:4;stroke-dasharray:none;stroke-opacity:1" /><path
         d="m 5366.1,-2633.8 c -197.4,-70.9 -298.9,-275.9 -298.9,-613.2 0,-206.9 38.3,-373.7 111.1,-477.1 82.4,-118.8 141.8,-153.3 277.8,-160.9 203.1,-13.4 327.7,76.7 408.2,293.2 55.6,147.6 51.7,553.8 -7.7,703.3 -51.7,126.5 -159,233.8 -266.4,262.5 -93.8,26.6 -132.2,24.7 -224.1,-7.8 z"
         id="path5223"
         inkscape:connector-curvature="0"
         style="fill:#c96f07;fill-opacity:1;stroke:none;stroke-width:78.39918518;stroke-miterlimit:4;stroke-dasharray:none;stroke-opacity:1" /></g></g></svg>