<?xml version="1.0" encoding="UTF-8"?>
<svg width="249.56" height="250" version="1.1" viewBox="0 0 249.55699 249.99969" xmlns="http://www.w3.org/2000/svg">
<g transform="matrix(6.2418 0 0 6.2418 -.12484 .3285)" fill="none" fill-rule="evenodd">
<g transform="translate(0,-1)">
<path d="m32.779 20.921c0 2.523-0.73275 4.9409-1.9889 6.9383l5.1292 5.1511c2.5123-3.364 4.0825-7.569 4.0825-12.089s-1.5702-8.7254-4.0825-12.089l-5.1292 5.1511c1.2561 1.9974 1.9889 4.3101 1.9889 6.9383z" fill="#b8d3f4"/>
<path d="m20.014 33.746c-7.0135 0-12.771-5.7819-12.771-12.825s5.7573-12.825 12.771-12.825c2.617 0 4.9199 0.73588 6.9088 2.1025l5.1292-5.1511c-3.3497-2.523-7.5368-4.0999-12.038-4.0999-10.991 0-19.994 8.9356-19.994 20.079 0 11.143 9.0023 19.974 19.994 19.974 4.6059 0 8.793-1.5769 12.143-4.0999l-5.1292-5.1511c-1.9889 1.2615-4.3965 1.9974-7.0135 1.9974z" fill="#3385ff"/>
</g>
</g>
</svg>
