<?xml version="1.0" encoding="UTF-8"?>
<svg width="250" height="250" version="1.1" viewBox="-464 -79 250 250" xmlns="http://www.w3.org/2000/svg">
<style type="text/css">.st0{fill:#FFFFFF;}
	.st1{fill:#169CEE;}</style>
<g transform="translate(5,5)">
<circle class="st0" cx="-344" cy="41.9" r="107.4" fill="#fff"/>
<path d="m-344 161c67.1 0 120-53.1 120-120s-52.9-120-120-120-120 53.3-120 120c0 66.9 52.9 120 120 120" fill="#169cee"/>
<path d="m-324 70.2h-59c-8.6 0-13.6 5.3-13.6 12.9 0 6.8 4.6 11.6 11.2 11.6 7.7 0 12.1-5.3 12.5-12.9h17.1c-0.9 18.6-12.5 28.5-29.8 28.5-16.2 0-28.3-11-28.3-27.4 0-17.1 12.7-29 31.8-29h58.4c19.7 0 34.7-14.5 34.7-34 0-19.7-13.4-33.6-32.5-33.6-18.9 0-34.2 13.8-34.2 39.3v16.7h-17.3v-16.7c0-33.8 21.7-55.7 51.8-55.7 28.7 0 49.6 20.6 49.6 49.8 0.2 29.2-22.2 50.5-52.4 50.5" fill="#fff" fill-opacity=".94118"/>
</g>
</svg>
