<?xml version="1.0" encoding="UTF-8" standalone="no"?>
<svg
   xmlns:dc="http://purl.org/dc/elements/1.1/"
   xmlns:cc="http://creativecommons.org/ns#"
   xmlns:rdf="http://www.w3.org/1999/02/22-rdf-syntax-ns#"
   xmlns:svg="http://www.w3.org/2000/svg"
   xmlns="http://www.w3.org/2000/svg"
   xmlns:sodipodi="http://sodipodi.sourceforge.net/DTD/sodipodi-0.dtd"
   xmlns:inkscape="http://www.inkscape.org/namespaces/inkscape"
   width="250"
   height="250"
   viewBox="0 0 30.202926 30.2"
   preserveAspectRatio="xMidYMid"
   version="1.1"
   id="svg10"
   sodipodi:docname="paypal.svg"
   inkscape:version="0.92.4 (33fec40, 2019-01-16)">
  <metadata
     id="metadata16">
    <rdf:RDF>
      <cc:Work
         rdf:about="">
        <dc:format>image/svg+xml</dc:format>
        <dc:type
           rdf:resource="http://purl.org/dc/dcmitype/StillImage" />
        <dc:title></dc:title>
      </cc:Work>
    </rdf:RDF>
  </metadata>
  <defs
     id="defs14" />
  <sodipodi:namedview
     pagecolor="#ffffff"
     bordercolor="#666666"
     borderopacity="1"
     objecttolerance="10"
     gridtolerance="10"
     guidetolerance="10"
     inkscape:pageopacity="0"
     inkscape:pageshadow="2"
     inkscape:window-width="1920"
     inkscape:window-height="1052"
     id="namedview12"
     showgrid="false"
     fit-margin-top="0"
     fit-margin-left="0"
     fit-margin-right="0"
     fit-margin-bottom="0"
     inkscape:pagecheckerboard="true"
     inkscape:zoom="0.26700352"
     inkscape:cx="-1870.7553"
     inkscape:cy="-1126.3302"
     inkscape:window-x="0"
     inkscape:window-y="0"
     inkscape:window-maximized="1"
     inkscape:current-layer="svg10" />
  <g
     id="g827"
     transform="matrix(0.10036542,0,0,0.10036542,2.3003111,-0.08333092)">
    <path
       id="path2"
       d="M 217.168,23.507 C 203.234,7.625 178.046,0.816 145.823,0.816 H 52.303 A 13.393,13.393 0 0 0 39.076,12.11 L 0.136,259.077 c -0.774,4.87 2.997,9.28 7.933,9.28 h 57.736 l 14.5,-91.971 -0.45,2.88 c 1.033,-6.501 6.593,-11.296 13.177,-11.296 h 27.436 c 53.898,0 96.101,-21.892 108.429,-85.221 0.366,-1.873 0.683,-3.696 0.957,-5.477 -1.556,-0.824 -1.556,-0.824 0,0 3.671,-23.407 -0.025,-39.34 -12.686,-53.765"
       inkscape:connector-curvature="0"
       style="fill:#27346a" />
    <path
       id="path4"
       d="m 102.397,68.84 a 11.737,11.737 0 0 1 5.053,-1.14 h 73.318 c 8.682,0 16.78,0.565 24.18,1.756 a 101.6,101.6 0 0 1 6.177,1.182 89.928,89.928 0 0 1 8.59,2.347 c 3.638,1.215 7.026,2.63 10.14,4.287 3.67,-23.416 -0.026,-39.34 -12.687,-53.765 C 203.226,7.625 178.046,0.816 145.823,0.816 H 52.295 C 45.71,0.816 40.108,5.61 39.076,12.11 L 0.136,259.068 c -0.774,4.878 2.997,9.282 7.925,9.282 H 65.805 L 95.888,77.58 a 11.717,11.717 0 0 1 6.509,-8.74 z"
       inkscape:connector-curvature="0"
       style="fill:#27346a" />
    <path
       id="path6"
       d="m 228.897,82.749 c -12.328,63.32 -54.53,85.221 -108.429,85.221 H 93.024 c -6.584,0 -12.145,4.795 -13.168,11.296 L 61.817,293.621 c -0.674,4.262 2.622,8.124 6.934,8.124 h 48.67 a 11.71,11.71 0 0 0 11.563,-9.88 l 0.474,-2.48 9.173,-58.136 0.591,-3.213 a 11.71,11.71 0 0 1 11.562,-9.88 h 7.284 c 47.147,0 84.064,-19.154 94.852,-74.55 4.503,-23.15 2.173,-42.478 -9.739,-56.054 -3.613,-4.112 -8.1,-7.508 -13.327,-10.28 -0.283,1.79 -0.59,3.604 -0.957,5.477 z"
       inkscape:connector-curvature="0"
       style="fill:#2790c3" />
    <path
       id="path8"
       d="m 216.952,72.128 a 89.928,89.928 0 0 0 -5.818,-1.49 109.904,109.904 0 0 0 -6.177,-1.174 c -7.408,-1.199 -15.5,-1.765 -24.19,-1.765 h -73.309 a 11.57,11.57 0 0 0 -5.053,1.149 11.683,11.683 0 0 0 -6.51,8.74 l -15.582,98.798 -0.45,2.88 c 1.025,-6.501 6.585,-11.296 13.17,-11.296 h 27.444 c 53.898,0 96.1,-21.892 108.428,-85.221 0.367,-1.873 0.675,-3.688 0.958,-5.477 -3.122,-1.648 -6.501,-3.072 -10.14,-4.279 a 83.26,83.26 0 0 0 -2.77,-0.865"
       inkscape:connector-curvature="0"
       style="fill:#1f264f" />
  </g>
</svg>
