<?xml version="1.0" encoding="UTF-8" standalone="no"?>
<svg
   xmlns:dc="http://purl.org/dc/elements/1.1/"
   xmlns:cc="http://creativecommons.org/ns#"
   xmlns:rdf="http://www.w3.org/1999/02/22-rdf-syntax-ns#"
   xmlns:svg="http://www.w3.org/2000/svg"
   xmlns="http://www.w3.org/2000/svg"
   xmlns:sodipodi="http://sodipodi.sourceforge.net/DTD/sodipodi-0.dtd"
   xmlns:inkscape="http://www.inkscape.org/namespaces/inkscape"
   enable-background="new 0 0 500 500"
   id="Layer_1"
   version="1.1"
   viewBox="0 0 250 250.00046"
   xml:space="preserve"
   sodipodi:docname="persona.svg"
   width="250"
   height="250.00046"
   inkscape:version="0.92.1 unknown"><metadata
     id="metadata4624"><rdf:RDF><cc:Work
         rdf:about=""><dc:format>image/svg+xml</dc:format><dc:type
           rdf:resource="http://purl.org/dc/dcmitype/StillImage" /><dc:title></dc:title></cc:Work></rdf:RDF></metadata><defs
     id="defs4622" /><sodipodi:namedview
     pagecolor="#ffffff"
     bordercolor="#666666"
     borderopacity="1"
     objecttolerance="10"
     gridtolerance="10"
     guidetolerance="10"
     inkscape:pageopacity="0"
     inkscape:pageshadow="2"
     inkscape:window-width="1920"
     inkscape:window-height="1056"
     id="namedview4620"
     showgrid="false"
     fit-margin-top="0"
     fit-margin-left="0"
     fit-margin-right="0"
     fit-margin-bottom="0"
     inkscape:zoom="0.944"
     inkscape:cx="715.05105"
     inkscape:cy="66.901382"
     inkscape:window-x="0"
     inkscape:window-y="24"
     inkscape:window-maximized="1"
     inkscape:current-layer="Layer_1" /><path
     style="fill:#ff9138;fill-opacity:1;stroke-width:0.56697804"
     inkscape:connector-curvature="0"
     id="XMLID_2_"
     d="m 234.302,249.99252 c 0,0 -8.16959,-44.87007 -11.18364,-66.76733 -3.01406,-21.89783 -43.58871,-35.67256 -63.34449,-41.36275 -22.7721,-6.5588 -13.1108,-31.83071 -13.1108,-31.83071 -4.55,3.2261 -13.59953,6.24299 -22.01235,6.24299 -8.41282,0 -21.13694,-5.09146 -21.13694,-5.09146 0,0 9.93685,23.45701 -13.98565,30.67918 -19.70135,5.9476 -60.330433,19.46492 -63.344488,41.36275 C 23.169586,205.12301 15,249.99252 15,249.99252 Z" /><path
     d="m 225.31426,249.99252 c 4.67927,0 8.22175,-4.22512 7.4002,-8.83181 -2.53042,-14.19203 -7.41437,-42.08338 -9.5961,-57.93609 -3.01406,-21.89782 -43.58871,-35.67255 -63.34449,-41.36275 -11.23864,-3.23687 -22.66721,35.2666 -34.23697,35.14074 -11.87252,-0.12928 -23.89302,-38.79831 -36.00877,-35.14074 -19.70135,5.9476 -60.330433,19.46493 -63.344488,41.36275 -2.181732,15.85271 -7.065681,43.74406 -9.596104,57.93609 -0.821551,4.60669 2.720928,8.83181 7.400198,8.83181 z"
     id="XMLID_1_"
     inkscape:connector-curvature="0"
     style="fill:#864a05;fill-opacity:1;stroke-width:0.56697804" /><polygon
     points="189.818,278.867 241.655,355.875 215.05,481.986 167.492,291.867 "
     id="polygon4588"
     style="fill:#ffffff"
     transform="matrix(0.56697803,0,0,0.56697803,-11.476173,-23.282948)" /><polygon
     points="109.87,482 84,482 84,382.426 "
     id="polygon4590"
     style="fill:#572f04;fill-opacity:1"
     transform="matrix(0.56697803,0,0,0.56697803,-11.476173,-23.282948)" /><polygon
     points="208.722,482 219.927,482 157.827,300.36 153.199,393.884 "
     id="polygon4592"
     style="fill:#573003;fill-opacity:1"
     transform="matrix(0.56697803,0,0,0.56697803,-11.476173,-23.282948)" /><polygon
     points="293.678,278.867 241.84,355.875 268.445,481.986 316.004,291.867 "
     id="polygon4594"
     style="fill:#ffffff"
     transform="matrix(0.56697803,0,0,0.56697803,-11.476173,-23.282948)" /><polygon
     points="373.452,482 399,482 399,382.426 "
     id="polygon4596"
     style="fill:#573003;fill-opacity:1"
     transform="matrix(0.56697803,0,0,0.56697803,-11.476173,-23.282948)" /><polygon
     points="274.774,482 263.568,482 325.669,300.36 330.296,393.884 "
     id="polygon4598"
     style="fill:#573003;fill-opacity:1"
     transform="matrix(0.56697803,0,0,0.56697803,-11.476173,-23.282948)" /><path
     d="m 113.11271,249.99252 7.27206,-83.07192 c 1.39023,-5.29954 8.91347,-5.29954 10.3037,0 l 6.64044,83.07192 z"
     id="path4600"
     inkscape:connector-curvature="0"
     style="fill:#864a05;fill-opacity:1;stroke-width:0.56697804" /><path
     d="m 122.21725,187.82055 -8.8562,-8.8562 c -1.83361,-1.83361 -1.83361,-4.80627 0,-6.64045 l 8.8562,-8.85619 c 1.8336,-1.83361 4.80627,-1.83361 6.64044,0 l 8.8562,8.85619 c 1.83361,1.83361 1.83361,4.80628 0,6.64045 l -8.8562,8.8562 c -1.83417,1.8336 -4.80684,1.8336 -6.64044,0 z"
     id="path4602"
     inkscape:connector-curvature="0"
     style="fill:#864a05;fill-opacity:1;stroke-width:0.56697804" /><path
     d="m 78.28269,143.66883 -2.90066,28.31035 c -0.2971,2.90236 2.1891,5.32392 5.08239,4.94972 l 3.27486,-0.42353 c 1.89768,-0.24551 2.92277,2.15508 1.43332,3.35594 l -5.2899,4.26651 c -1.68846,1.36188 -2.17323,3.73071 -1.1555,5.64653 l 31.72469,60.21874 h 11.28116 L 92.25586,137.09359 Z"
     id="path4604"
     inkscape:connector-curvature="0"
     style="fill:#a55a05;fill-opacity:1;stroke-width:0.56697804" /><path
     d="m 172.89601,143.66883 2.90066,28.31035 c 0.29766,2.90236 -2.1891,5.32392 -5.08239,4.94972 l -3.27487,-0.42353 c -1.8971,-0.24551 -2.92277,2.15508 -1.43332,3.35594 l 5.28991,4.26651 c 1.68846,1.36188 2.17323,3.73071 1.1555,5.64653 l -31.72469,60.21874 h -11.28116 l 29.47719,-112.8995 z"
     id="path4606"
     inkscape:connector-curvature="0"
     style="fill:#a45b06;fill-opacity:1;stroke-width:0.56697804" /><path
     style="fill:#ff7707;fill-opacity:1;stroke-width:0.56697804"
     inkscape:connector-curvature="0"
     id="path4610"
     d="m 104.51222,114.25118 c 0,0 2.25544,10.0253 0,14.58551 l 9.90908,7.24654 c 7.38432,5.40047 17.76909,3.43986 22.72505,-4.25006 3.19492,-4.95709 6.3785,-10.99881 8.32663,-17.58256 5.11585,-17.284318 -43.86935,-18.087728 -40.96076,5.7e-4 z" /><path
     style="fill:#ff9138;fill-opacity:1;stroke-width:0.56697804"
     inkscape:connector-curvature="0"
     id="XMLID_32_"
     d="m 167.69115,49.613422 c 0,23.40315 -5.90054,71.763538 -43.03987,71.763538 -37.13933,0 -43.03987,-48.360958 -43.03987,-71.763538 0,-23.40316 19.26989,-42.3748101 43.03987,-42.3748101 23.76999,0 43.03987,18.9716501 43.03987,42.3748101 z" /><path
     style="fill:#864a05;fill-opacity:1;stroke-width:0.56697804"
     inkscape:connector-curvature="0"
     id="path4613"
     d="m 87.71947,90.309402 c 0,0 39.45316,-12.22065 47.78888,-36.43401 0,0 12.51717,19.33338 29.47945,23.75808 0,0 7.94563,-37.65131 -12.35502,-47.97144 -20.30065,-10.32014 -86.22205,-3.00782 -64.91331,60.64737 z" /><path
     style="fill:#c96f07;fill-opacity:1;stroke-width:0.56697804"
     inkscape:connector-curvature="0"
     id="path4615"
     d="m 133.97864,39.667492 c 0,0 -2.21065,22.94163 -54.00239,41.42568 -19.58172,-40.39889 12.01256,-102.314588 62.60118,-73.8545601 0,0 38.89923,1.71908 26.59127,63.9579601 -5.7e-4,-5.7e-4 -18.81177,-9.00872 -35.19006,-31.52908 z" /></svg>