<?xml version="1.0" encoding="UTF-8" standalone="no"?>
<svg
   xmlns:dc="http://purl.org/dc/elements/1.1/"
   xmlns:cc="http://creativecommons.org/ns#"
   xmlns:rdf="http://www.w3.org/1999/02/22-rdf-syntax-ns#"
   xmlns:svg="http://www.w3.org/2000/svg"
   xmlns="http://www.w3.org/2000/svg"
   xmlns:sodipodi="http://sodipodi.sourceforge.net/DTD/sodipodi-0.dtd"
   xmlns:inkscape="http://www.inkscape.org/namespaces/inkscape"
   width="249.99976"
   height="250"
   version="1.1"
   id="svg15"
   sodipodi:docname="profile.svg"
   inkscape:version="0.92.1 unknown">
  <defs
     id="defs19" />
  <sodipodi:namedview
     pagecolor="#ffffff"
     bordercolor="#666666"
     borderopacity="1"
     objecttolerance="10"
     gridtolerance="10"
     guidetolerance="10"
     inkscape:pageopacity="0"
     inkscape:pageshadow="2"
     inkscape:window-width="1024"
     inkscape:window-height="1256"
     id="namedview17"
     showgrid="false"
     inkscape:pagecheckerboard="true"
     fit-margin-top="0"
     fit-margin-left="0"
     fit-margin-right="0"
     fit-margin-bottom="0"
     inkscape:zoom="0.69532167"
     inkscape:cx="114.58036"
     inkscape:cy="6.9331834"
     inkscape:window-x="1920"
     inkscape:window-y="24"
     inkscape:window-maximized="1"
     inkscape:current-layer="svg15" />
  <path
     id="path2396"
     d="m 2.9665487,243.21834 c 0,-4.30306 6.7672941,-41.28576 7.9142803,-43.25093 0.408654,-0.70012 1.423749,-5.2353 2.255726,-10.07818 1.940785,-11.29692 5.518973,-23.43503 7.62524,-25.86641 0.905416,-1.0453 9.030434,-3.52986 18.055599,-5.52134 27.725373,-6.11789 39.945042,-10.83033 45.978057,-17.73112 2.875522,-3.28923 7.224644,-6.71736 9.664475,-7.61796 3.87654,-1.43097 4.436348,-2.3414 4.436348,-7.21622 0,-3.06829 -0.88582,-6.92434 -1.968274,-8.56908 -1.082454,-1.64482 -2.444379,-6.06059 -3.026531,-9.81288 -0.582163,-3.75232 -2.273618,-8.04281 -3.759012,-9.53451 -1.485285,-1.491758 -2.70052,-3.395548 -2.70052,-4.230664 0,-0.835125 -1.449697,-3.594556 -3.221501,-6.132168 C 81.472446,83.72132 80.97253,81.000288 80.819415,69.146302 80.523643,46.244582 82.377694,35.764753 88.434602,26.102629 96.98667,12.459694 113.50232,3.0104837 128.87142,2.9668698 c 6.00557,-0.017053 8.52878,0.7202476 11.05069,3.2288412 1.90433,1.8944153 6.3796,3.771774 10.72468,4.499121 8.64473,1.446917 16.41957,7.259955 20.19451,15.098943 1.89781,3.941018 2.50385,8.935865 2.50569,20.648787 9.9e-4,8.662145 0.63122,15.86199 1.43396,16.387331 3.89338,2.547949 0.26128,20.152081 -5.84651,28.337571 -2.29689,3.078049 -4.19018,6.830336 -4.20739,8.338466 -0.0174,1.50806 -1.30596,5.71602 -2.86364,9.35097 -5.17323,12.07197 -3.39308,24.01981 3.97735,26.69422 1.3734,0.49833 4.75216,3.97646 7.50835,7.72909 2.75626,3.75267 6.62201,7.20854 8.59067,7.67972 1.96879,0.47131 10.79768,3.86019 19.61973,7.53105 8.82205,3.67081 16.4701,6.67424 16.99562,6.67424 0.52561,0 3.74657,1.87611 7.15799,4.16928 6.09623,4.0978 9.20278,9.56774 9.20278,16.2034 0,1.78399 1.3325,5.9461 2.96082,9.24928 2.62058,5.31581 4.4042,15.50999 8.01407,45.80297 l 0.76788,6.4433 H 124.81251 2.9665586 v -3.81511 z"
     inkscape:connector-curvature="0"
     style="fill:#ff9138;fill-opacity:1;stroke:#864a05;stroke-width:5.93309736;stroke-miterlimit:4;stroke-dasharray:none;stroke-opacity:1" />
  <text
     style="font-size:144.84446716px;font-family:Arial;text-anchor:middle;fill:#000000;stroke:#000000;stroke-width:0;stroke-dasharray:none"
     stroke-linejoin="null"
     stroke-linecap="null"
     x="-250.1169"
     y="258.42407"
     id="svg_2"
     font-size="24"
     xml:space="preserve"
     transform="scale(1.3965716,0.71603919)" />
  <text
     style="font-size:131.7716217px;font-family:Arial;text-anchor:middle;fill:#000000;stroke:#000000;stroke-width:0;stroke-dasharray:none"
     stroke-linejoin="null"
     stroke-linecap="null"
     x="-247.95993"
     y="271.85724"
     id="svg_3"
     font-size="24"
     xml:space="preserve"
     transform="scale(1.3139625,0.76105673)" />
  <text
     style="font-size:24px;font-family:Arial;text-anchor:middle;fill:#000000;stroke:#000000;stroke-width:0;stroke-dasharray:none"
     stroke-linejoin="null"
     stroke-linecap="null"
     x="-363.30646"
     y="142.97015"
     id="svg_4"
     font-size="24"
     xml:space="preserve" />
</svg>
