<?xml version="1.0" encoding="UTF-8" standalone="no"?>
<svg
   xmlns:dc="http://purl.org/dc/elements/1.1/"
   xmlns:cc="http://creativecommons.org/ns#"
   xmlns:rdf="http://www.w3.org/1999/02/22-rdf-syntax-ns#"
   xmlns:svg="http://www.w3.org/2000/svg"
   xmlns="http://www.w3.org/2000/svg"
   xmlns:sodipodi="http://sodipodi.sourceforge.net/DTD/sodipodi-0.dtd"
   xmlns:inkscape="http://www.inkscape.org/namespaces/inkscape"
   version="1.1"
   x="0"
   y="0"
   width="250"
   height="250"
   id="svg2"
   sodipodi:docname="random.svg"
   inkscape:version="0.92.3 (d244b95, 2018-08-02)">
  <metadata
     id="metadata1147">
    <rdf:RDF>
      <cc:Work
         rdf:about="">
        <dc:format>image/svg+xml</dc:format>
        <dc:type
           rdf:resource="http://purl.org/dc/dcmitype/StillImage" />
        <dc:title></dc:title>
      </cc:Work>
    </rdf:RDF>
  </metadata>
  <sodipodi:namedview
     pagecolor="#ffffff"
     bordercolor="#666666"
     borderopacity="1"
     objecttolerance="10"
     gridtolerance="10"
     guidetolerance="10"
     inkscape:pageopacity="0"
     inkscape:pageshadow="2"
     inkscape:window-width="1920"
     inkscape:window-height="1052"
     id="namedview1145"
     showgrid="false"
     fit-margin-top="0"
     fit-margin-left="0"
     fit-margin-right="0"
     fit-margin-bottom="0"
     inkscape:zoom="2"
     inkscape:cx="258.70999"
     inkscape:cy="182.43802"
     inkscape:window-x="3840"
     inkscape:window-y="0"
     inkscape:window-maximized="1"
     inkscape:current-layer="svg2" />
  <defs
     id="defs4" />
  <path
     inkscape:connector-curvature="0"
     style="fill:#864a05;fill-opacity:1;fill-rule:evenodd;stroke:#7e490c;stroke-width:0.73349899;stroke-linecap:round;stroke-linejoin:round;stroke-miterlimit:4;stroke-dasharray:none;stroke-opacity:1"
     id="path3586"
     d="M 105.86438,10.452939 C 108.615,5.8685793 115.03312,0.36732933 119.61749,0.36732933 L 220.4736,57.213509 c 1.83375,1.83374 6.41812,13.7531 2.75062,18.33747 L 123.28498,134.2309 c -2.75062,0.91688 -14.66998,0 -18.33748,-9.16873 z" />
  <path
     d="m 149.42636,130.7166 c 4.58437,2.75062 10.08561,9.16874 10.08561,13.75311 l -58.9832,102.20667 c -2.441802,1.50971 -7.730612,4.55014 -15.245842,1.94245 L 25.648398,148.1372 c -0.91687,-2.75062 0,-14.66998 9.16874,-18.33747 z"
     id="path3590"
     style="fill:#864a05;fill-opacity:1;fill-rule:evenodd;stroke:#7e490c;stroke-width:0.73349899;stroke-linecap:round;stroke-linejoin:round;stroke-miterlimit:4;stroke-dasharray:none;stroke-opacity:1"
     inkscape:connector-curvature="0" />
  <path
     d="m 115.25613,8.7262093 c -2.62838,-4.54246 -0.48507,-8.25465997 4.76301,-8.24964997 l 58.13777,0.0555 c 5.24788,0.005 11.69199,3.72539997 14.32037,8.26786997 l 29.11695,50.3210397 c 2.62831,4.54234 0.48496,8.25472 -4.76291,8.24971 l -58.13777,-0.0555 c -5.24808,-0.005 -11.69216,-3.72558 -14.32047,-8.26793 z"
     id="path3580"
     style="fill:#ffffff;fill-opacity:1;stroke:#7e490c;stroke-width:0.91410744;stroke-opacity:1"
     inkscape:connector-curvature="0" />
  <path
     inkscape:connector-curvature="0"
     style="fill:#ffffff;fill-opacity:1;stroke:#7e490c;stroke-width:0.91410744;stroke-opacity:1"
     id="path3622"
     d="m 151.15309,140.10836 c 4.54247,-2.62838 8.25466,-0.48507 8.24965,4.763 l -0.0555,58.13778 c -0.005,5.24787 -3.7254,11.69199 -8.26786,14.32036 l -50.32104,29.11695 c -4.542352,2.62832 -8.254722,0.48496 -8.249712,-4.7629 l 0.0555,-58.13778 c 0.005,-5.24808 3.72558,-11.69216 8.267922,-14.32047 z" />
  <path
     d="m 115.79324,127.25464 c -2.6197,4.54747 -6.90621,4.54741 -9.52591,-6e-5 L 77.246488,76.878049 c -2.61959,-4.5473 -2.6197,-11.98826 0,-16.53573 L 106.26733,9.9657793 c 2.61963,-4.54735 6.90631,-4.54735 9.52591,-6e-5 l 29.02083,50.3765397 c 2.6197,4.54747 2.61963,11.98849 0,16.53585 z"
     id="path3491"
     style="fill:#ffffff;fill-opacity:1;stroke:#7e490c;stroke-width:0.91410744;stroke-opacity:1"
     inkscape:connector-curvature="0" />
  <circle
     cx="71.623886"
     cy="150.80447"
     r="8.0191011"
     id="circle3493"
     style="fill:#ff9138;fill-opacity:1;stroke:#7e490c;stroke-width:0.70201075;stroke-opacity:1"
     transform="matrix(0.4991732,-0.86650223,0.4991732,0.86650223,0,0)" />
  <path
     d="m 218.36999,67.436899 c 5.24808,-0.005 7.39128,3.70725 4.76291,8.24971 l -29.11695,50.321041 c -2.62828,4.54229 -9.07229,8.26286 -14.32037,8.26787 l -58.13777,0.0555 c -5.24794,0.005 -7.39128,-3.70737 -4.76301,-8.24965 l 29.11695,-50.321041 c 2.62837,-4.54247 9.07252,-8.26292 14.32046,-8.26793 z"
     id="path3566"
     style="fill:#ffffff;fill-opacity:1;stroke:#7e490c;stroke-width:0.91410744;stroke-opacity:1"
     inkscape:connector-curvature="0" />
  <ellipse
     cx="-251.13524"
     cy="-94.13562"
     id="circle3560"
     style="fill:#ff9138;fill-opacity:1;stroke:#7e490c;stroke-width:0.70201075;stroke-opacity:1"
     transform="matrix(-0.99999954,9.5444102e-4,0.50082642,-0.86554775,0,0)"
     rx="8.0191021"
     ry="8.0191011" />
  <ellipse
     cx="-205.79259"
     cy="-94.13562"
     id="circle3562"
     style="fill:#ff9138;fill-opacity:1;stroke:#7e490c;stroke-width:0.70201075;stroke-opacity:1"
     transform="matrix(-0.99999954,9.5444102e-4,0.50082642,-0.86554775,0,0)"
     rx="8.0191021"
     ry="8.0191011" />
  <circle
     cx="-205.79277"
     cy="-139.47827"
     r="8.0190334"
     id="circle3564"
     style="fill:#ff9138;fill-opacity:1;stroke:#7e490c;stroke-width:0.70201075;stroke-opacity:1"
     transform="matrix(-0.99999954,9.5444102e-4,0.50082642,-0.86554775,0,0)" />
  <ellipse
     cx="-228.46397"
     cy="-116.80694"
     id="circle3568"
     style="fill:#ff9138;fill-opacity:1;stroke:#7e490c;stroke-width:0.70201075;stroke-opacity:1"
     transform="matrix(-0.99999954,9.5444102e-4,0.50082642,-0.86554775,0,0)"
     rx="8.0191021"
     ry="8.0191011" />
  <ellipse
     cx="-251.1353"
     cy="-139.47833"
     id="circle3570"
     style="fill:#ff9138;fill-opacity:1;stroke:#7e490c;stroke-width:0.70201075;stroke-opacity:1"
     transform="matrix(-0.99999954,9.5444102e-4,0.50082642,-0.86554775,0,0)"
     rx="8.0191364"
     ry="8.0191355" />
  <ellipse
     cx="16.357832"
     cy="-126.20711"
     id="circle3574"
     style="fill:#ff9138;fill-opacity:1;stroke:#7e490c;stroke-width:0.70201075;stroke-opacity:1"
     transform="matrix(0.50082642,0.86554775,-0.99999954,-9.5444102e-4,0,0)"
     rx="8.0191011"
     ry="8.0191021" />
  <ellipse
     cx="61.700451"
     cy="-126.20711"
     id="circle3576"
     style="fill:#ff9138;fill-opacity:1;stroke:#7e490c;stroke-width:0.70201075;stroke-opacity:1"
     transform="matrix(0.50082642,0.86554775,-0.99999954,-9.5444102e-4,0,0)"
     rx="8.0191011"
     ry="8.0191021" />
  <circle
     cx="61.700237"
     cy="-171.54977"
     r="8.0190334"
     id="circle3578"
     style="fill:#ff9138;fill-opacity:1;stroke:#7e490c;stroke-width:0.70201075;stroke-opacity:1"
     transform="matrix(0.50082642,0.86554775,-0.99999954,-9.5444102e-4,0,0)" />
  <ellipse
     cx="16.35774"
     cy="-171.54982"
     id="circle3584"
     style="fill:#ff9138;fill-opacity:1;stroke:#7e490c;stroke-width:0.70201075;stroke-opacity:1"
     transform="matrix(0.50082642,0.86554775,-0.99999954,-9.5444102e-4,0,0)"
     rx="8.0191355"
     ry="8.0191364" />
  <path
     inkscape:connector-curvature="0"
     style="fill:#ffffff;fill-opacity:1;stroke:#7e490c;stroke-width:0.91410744;stroke-opacity:1"
     id="path3594"
     d="m 32.624668,140.64546 c -4.54748,-2.6197 -4.54742,-6.90621 5e-5,-9.52591 l 50.37654,-29.02083 c 4.54729,-2.619601 11.98826,-2.619701 16.53573,0 l 50.376532,29.02083 c 4.54735,2.61963 4.54735,6.90631 6e-5,9.52591 l -50.376532,29.02083 c -4.54747,2.6197 -11.9885,2.61964 -16.53585,0 z" />
  <circle
     style="fill:#ff9138;fill-opacity:1;stroke:#7e490c;stroke-width:0.70201075;stroke-opacity:1"
     id="circle3602"
     r="8.0191011"
     cy="83.442337"
     cx="188.77283"
     transform="matrix(0.86650223,0.4991732,-0.86650223,0.4991732,0,0)" />
  <path
     inkscape:connector-curvature="0"
     style="fill:#ffffff;fill-opacity:1;stroke:#7e490c;stroke-width:0.91410744;stroke-opacity:1"
     id="path3608"
     d="m 92.442398,243.22222 c 0.005,5.24808 -3.70725,7.39129 -8.24971,4.76289 l -50.32104,-29.11694 c -4.54228,-2.62827 -8.26286,-9.07228 -8.26786,-14.32036 l -0.0555,-58.13778 c -0.005,-5.24794 3.70736,-7.39128 8.24965,-4.76301 l 50.32104,29.11695 c 4.54246,2.62838 8.26292,9.07253 8.26792,14.32047 z" />
  <ellipse
     style="fill:#ff9138;fill-opacity:1;stroke:#7e490c;stroke-width:0.70201075;stroke-opacity:1"
     id="circle3610"
     cy="90.653641"
     cx="-183.44011"
     transform="matrix(-9.5444102e-4,-0.99999954,0.86554775,0.50082642,0,0)"
     rx="8.0191021"
     ry="8.0191011" />
  <circle
     style="fill:#ff9138;fill-opacity:1;stroke:#7e490c;stroke-width:0.70201075;stroke-opacity:1"
     id="circle3614"
     r="8.0190334"
     cy="45.310959"
     cx="-138.09767"
     transform="matrix(-9.5444102e-4,-0.99999954,0.86554775,0.50082642,0,0)" />
  <ellipse
     style="fill:#ff9138;fill-opacity:1;stroke:#7e490c;stroke-width:0.70201075;stroke-opacity:1"
     id="circle3624"
     cy="-243.63417"
     cx="-168.48627"
     transform="matrix(-0.86554775,0.50082642,9.5444102e-4,-0.99999954,0,0)"
     rx="8.0191011"
     ry="8.0191021" />
  <circle
     style="fill:#ff9138;fill-opacity:1;stroke:#7e490c;stroke-width:0.70201075;stroke-opacity:1"
     id="circle3628"
     r="8.0190334"
     cy="-288.9769"
     cx="-123.14384"
     transform="matrix(-0.86554775,0.50082642,9.5444102e-4,-0.99999954,0,0)" />
  <ellipse
     style="fill:#ff9138;fill-opacity:1;stroke:#7e490c;stroke-width:0.70201075;stroke-opacity:1"
     id="circle3630"
     cy="-266.30557"
     cx="-145.81502"
     transform="matrix(-0.86554775,0.50082642,9.5444102e-4,-0.99999954,0,0)"
     rx="8.0191011"
     ry="8.0191021" />
</svg>
