<?xml version="1.0" encoding="UTF-8" standalone="no"?>
<svg
   xmlns:dc="http://purl.org/dc/elements/1.1/"
   xmlns:cc="http://creativecommons.org/ns#"
   xmlns:rdf="http://www.w3.org/1999/02/22-rdf-syntax-ns#"
   xmlns:svg="http://www.w3.org/2000/svg"
   xmlns="http://www.w3.org/2000/svg"
   xmlns:sodipodi="http://sodipodi.sourceforge.net/DTD/sodipodi-0.dtd"
   xmlns:inkscape="http://www.inkscape.org/namespaces/inkscape"
   version="1.1"
   x="0"
   y="0"
   width="250.00011"
   height="250"
   id="svg2"
   sodipodi:docname="random-profile.svg"
   inkscape:version="0.92.3 (d244b95, 2018-08-02)">
  <metadata
     id="metadata1147">
    <rdf:RDF>
      <cc:Work
         rdf:about="">
        <dc:format>image/svg+xml</dc:format>
        <dc:type
           rdf:resource="http://purl.org/dc/dcmitype/StillImage" />
        <dc:title />
      </cc:Work>
    </rdf:RDF>
  </metadata>
  <sodipodi:namedview
     pagecolor="#ffffff"
     bordercolor="#666666"
     borderopacity="1"
     objecttolerance="10"
     gridtolerance="10"
     guidetolerance="10"
     inkscape:pageopacity="0"
     inkscape:pageshadow="2"
     inkscape:window-width="1920"
     inkscape:window-height="1025"
     id="namedview1145"
     showgrid="false"
     fit-margin-top="0"
     fit-margin-left="0"
     fit-margin-right="0"
     fit-margin-bottom="0"
     inkscape:zoom="2"
     inkscape:cx="57.31455"
     inkscape:cy="92.141459"
     inkscape:window-x="1920"
     inkscape:window-y="27"
     inkscape:window-maximized="1"
     inkscape:current-layer="svg2" />
  <defs
     id="defs4" />
  <path
     inkscape:connector-curvature="0"
     style="fill:#864a05;fill-opacity:1;fill-rule:evenodd;stroke:#7e490c;stroke-width:1.22102523;stroke-linecap:round;stroke-linejoin:round;stroke-miterlimit:4;stroke-dasharray:none;stroke-opacity:1"
     id="path3586"
     d="M 51.703292,30.872615 C 56.282134,23.241223 66.966112,14.08352 74.597522,14.08352 l 167.890968,94.62947 c 3.05257,3.05255 10.68398,22.89422 4.57885,30.52563 L 80.702641,236.92064 c -4.578843,1.5263 -24.420507,0 -30.525641,-15.2628 z" />
  <path
     d="M 67.337348,27.9982 C 62.961993,20.436556 66.529872,14.257011 75.266133,14.265351 l 96.779527,0.09239 c 8.73593,0.0083 19.46317,6.201518 23.83852,13.763179 l 48.46978,83.76734 c 4.37524,7.56145 0.80729,13.74129 -7.92862,13.73295 l -96.77953,-0.0924 c -8.73626,-0.008 -19.46345,-6.20181 -23.83869,-13.76328 z"
     id="path3580"
     style="fill:#ffffff;fill-opacity:1;stroke:#7e490c;stroke-width:1.52167666;stroke-opacity:1"
     inkscape:connector-curvature="0" />
  <path
     d="m 68.231452,225.30755 c -4.360905,7.56999 -11.496481,7.56989 -15.857386,-1e-4 L 4.0642756,141.44774 c -4.36072198,-7.5697 -4.36090498,-19.95636 0,-27.52635 L 52.374066,30.061661 c 4.360789,-7.569784 11.496647,-7.569784 15.857386,-10e-5 l 48.309768,83.859729 c 4.36091,7.56999 4.36079,19.95675 0,27.52655 z"
     id="path3491"
     style="fill:#ffffff;fill-opacity:1;stroke:#7e490c;stroke-width:1.52167666;stroke-opacity:1"
     inkscape:connector-curvature="0" />
  <circle
     cx="-13.275497"
     cy="134.08075"
     r="13.349064"
     id="circle3493"
     style="fill:#ff9138;fill-opacity:1;stroke:#7e490c;stroke-width:1.16860807;stroke-opacity:1"
     transform="matrix(0.4991732,-0.86650223,0.4991732,0.86650223,0,0)" />
  <path
     d="m 238.9867,125.73145 c 8.73626,-0.008 12.30396,6.1713 7.92862,13.73295 l -48.46978,83.76734 c -4.37518,7.56136 -15.10226,13.75484 -23.83852,13.76318 l -96.779528,0.0924 c -8.736027,0.008 -12.303956,-6.17151 -7.928784,-13.73285 l 48.469772,-83.76736 c 4.37534,-7.56166 15.10265,-13.75493 23.83868,-13.76327 z"
     id="path3566"
     style="fill:#ffffff;fill-opacity:1;stroke:#7e490c;stroke-width:1.52167666;stroke-opacity:1"
     inkscape:connector-curvature="0" />
  <ellipse
     cx="-301.26035"
     cy="-172.1396"
     id="circle3560"
     style="fill:#ff9138;fill-opacity:1;stroke:#7e490c;stroke-width:1.16860807;stroke-opacity:1"
     transform="matrix(-0.99999954,9.5444102e-4,0.50082642,-0.86554775,0,0)"
     rx="13.349066"
     ry="13.349064" />
  <ellipse
     cx="-225.7803"
     cy="-172.1396"
     id="circle3562"
     style="fill:#ff9138;fill-opacity:1;stroke:#7e490c;stroke-width:1.16860807;stroke-opacity:1"
     transform="matrix(-0.99999954,9.5444102e-4,0.50082642,-0.86554775,0,0)"
     rx="13.349066"
     ry="13.349064" />
  <circle
     cx="-225.78061"
     cy="-247.61964"
     r="13.348951"
     id="circle3564"
     style="fill:#ff9138;fill-opacity:1;stroke:#7e490c;stroke-width:1.16860807;stroke-opacity:1"
     transform="matrix(-0.99999954,9.5444102e-4,0.50082642,-0.86554775,0,0)" />
  <ellipse
     cx="-263.52042"
     cy="-209.87961"
     id="circle3568"
     style="fill:#ff9138;fill-opacity:1;stroke:#7e490c;stroke-width:1.16860807;stroke-opacity:1"
     transform="matrix(-0.99999954,9.5444102e-4,0.50082642,-0.86554775,0,0)"
     rx="13.349066"
     ry="13.349064" />
  <ellipse
     cx="-301.26044"
     cy="-247.61974"
     id="circle3570"
     style="fill:#ff9138;fill-opacity:1;stroke:#7e490c;stroke-width:1.16860807;stroke-opacity:1"
     transform="matrix(-0.99999954,9.5444102e-4,0.50082642,-0.86554775,0,0)"
     rx="13.349123"
     ry="13.349121" />
  <g
     id="g888"
     transform="matrix(0.35935885,0,0.25975475,0.33293168,71.370158,28.453967)">
    <path
       style="fill:#ff9138;fill-opacity:1;stroke:#864a05;stroke-width:5.93309736;stroke-miterlimit:4;stroke-dasharray:none;stroke-opacity:1"
       inkscape:connector-curvature="0"
       d="m 2.9665487,243.21834 c 0,-4.30306 6.7672941,-41.28576 7.9142803,-43.25093 0.408654,-0.70012 1.423749,-5.2353 2.255726,-10.07818 1.940785,-11.29692 5.518973,-23.43503 7.62524,-25.86641 0.905416,-1.0453 9.030434,-3.52986 18.055599,-5.52134 27.725373,-6.11789 39.945042,-10.83033 45.978057,-17.73112 2.875522,-3.28923 7.224644,-6.71736 9.664475,-7.61796 3.87654,-1.43097 4.436348,-2.3414 4.436348,-7.21622 0,-3.06829 -0.88582,-6.92434 -1.968274,-8.56908 -1.082454,-1.64482 -2.444379,-6.06059 -3.026531,-9.81288 -0.582163,-3.75232 -2.273618,-8.04281 -3.759012,-9.53451 -1.485285,-1.491758 -2.70052,-3.395548 -2.70052,-4.230664 0,-0.835125 -1.449697,-3.594556 -3.221501,-6.132168 C 81.472446,83.72132 80.97253,81.000288 80.819415,69.146302 80.523643,46.244582 82.377694,35.764753 88.434602,26.102629 96.98667,12.459694 113.50232,3.0104837 128.87142,2.9668698 c 6.00557,-0.017053 8.52878,0.7202476 11.05069,3.2288412 1.90433,1.8944153 6.3796,3.771774 10.72468,4.499121 8.64473,1.446917 16.41957,7.259955 20.19451,15.098943 1.89781,3.941018 2.50385,8.935865 2.50569,20.648787 9.9e-4,8.662145 0.63122,15.86199 1.43396,16.387331 3.89338,2.547949 0.26128,20.152081 -5.84651,28.337571 -2.29689,3.078049 -4.19018,6.830336 -4.20739,8.338466 -0.0174,1.50806 -1.30596,5.71602 -2.86364,9.35097 -5.17323,12.07197 -3.39308,24.01981 3.97735,26.69422 1.3734,0.49833 4.75216,3.97646 7.50835,7.72909 2.75626,3.75267 6.62201,7.20854 8.59067,7.67972 1.96879,0.47131 10.79768,3.86019 19.61973,7.53105 8.82205,3.67081 16.4701,6.67424 16.99562,6.67424 0.52561,0 3.74657,1.87611 7.15799,4.16928 6.09623,4.0978 9.20278,9.56774 9.20278,16.2034 0,1.78399 1.3325,5.9461 2.96082,9.24928 2.62058,5.31581 4.4042,15.50999 8.01407,45.80297 l 0.76788,6.4433 H 124.81251 2.9665586 v -3.81511 z"
       id="path2396" />
    <text
       transform="scale(1.3965716,0.71603919)"
       xml:space="preserve"
       font-size="24"
       id="svg_2"
       y="258.42407"
       x="-250.1169"
       stroke-linecap="null"
       stroke-linejoin="null"
       style="font-size:144.84446716px;font-family:Arial;text-anchor:middle;fill:#000000;stroke:#000000;stroke-width:0;stroke-dasharray:none" />
    <text
       transform="scale(1.3139625,0.76105673)"
       xml:space="preserve"
       font-size="24"
       id="svg_3"
       y="271.85724"
       x="-247.95993"
       stroke-linecap="null"
       stroke-linejoin="null"
       style="font-size:131.7716217px;font-family:Arial;text-anchor:middle;fill:#000000;stroke:#000000;stroke-width:0;stroke-dasharray:none" />
    <text
       xml:space="preserve"
       font-size="24"
       id="svg_4"
       y="142.97015"
       x="-363.30646"
       stroke-linecap="null"
       stroke-linejoin="null"
       style="font-size:24px;font-family:Arial;text-anchor:middle;fill:#000000;stroke:#000000;stroke-width:0;stroke-dasharray:none" />
  </g>
</svg>
