<?xml version="1.0" encoding="UTF-8" standalone="no"?>
<svg
   xmlns:dc="http://purl.org/dc/elements/1.1/"
   xmlns:cc="http://creativecommons.org/ns#"
   xmlns:rdf="http://www.w3.org/1999/02/22-rdf-syntax-ns#"
   xmlns:svg="http://www.w3.org/2000/svg"
   xmlns="http://www.w3.org/2000/svg"
   xmlns:sodipodi="http://sodipodi.sourceforge.net/DTD/sodipodi-0.dtd"
   xmlns:inkscape="http://www.inkscape.org/namespaces/inkscape"
   version="1.1"
   id="Capa_1"
   x="0px"
   y="0px"
   width="250"
   height="250"
   viewBox="0 0 250 250"
   xml:space="preserve"
   sodipodi:docname="selfie.svg"
   inkscape:version="0.92.3 (d244b95, 2018-08-02)"><metadata
   id="metadata4660"><rdf:RDF><cc:Work
       rdf:about=""><dc:format>image/svg+xml</dc:format><dc:type
         rdf:resource="http://purl.org/dc/dcmitype/StillImage" /><dc:title></dc:title></cc:Work></rdf:RDF></metadata><defs
   id="defs4658">
</defs><sodipodi:namedview
   pagecolor="#ffffff"
   bordercolor="#666666"
   borderopacity="1"
   objecttolerance="10"
   gridtolerance="10"
   guidetolerance="10"
   inkscape:pageopacity="0"
   inkscape:pageshadow="2"
   inkscape:window-width="1920"
   inkscape:window-height="1025"
   id="namedview4656"
   showgrid="false"
   inkscape:pagecheckerboard="true"
   fit-margin-top="0"
   fit-margin-left="0"
   fit-margin-right="0"
   fit-margin-bottom="0"
   inkscape:zoom="1.7290377"
   inkscape:cx="111.23266"
   inkscape:cy="125.0005"
   inkscape:window-x="1920"
   inkscape:window-y="27"
   inkscape:window-maximized="1"
   inkscape:current-layer="Capa_1" />
<path
   d="m 203.47812,125.65328 -0.75065,1.61518 c -1.37561,-2.27155 -3.29836,-5.71674 -5.45811,-9.58491 -6.08768,-10.90693 -14.42682,-25.84535 -23.06168,-37.49882 l -0.1762,-0.22669 C 165.4471,69.33602 155.90856,64.17159 144.87437,64.17159 c -3.60181,0 -7.37621,0.57497 -11.21914,1.70842 -13.06565,3.85221 -15.08113,12.10479 -15.3408,15.46651 -0.50851,6.48337 4.47818,18.67058 17.82152,24.9829 l 0.0108,9.66528 c 6.62917,-1.77798 14.75862,-5.3427 15.40984,-10.65551 0.53942,-4.39729 -1.72389,-8.62302 -5.73065,-10.53031 -11.89612,-5.64409 -14.07545,-10.60347 -13.8874,-12.40206 0.83618,-8.01662 17.67417,-10.87447 31.3761,6.03153 8.08153,10.93269 16.13525,25.36105 22.02097,35.90579 1.90472,3.41273 3.55286,6.3659 4.92383,8.69721 l -39.10523,84.378 c -3.84963,-1.04587 -7.21599,-1.51368 -10.62202,-1.51368 -2.12059,0 -4.0655,0.1762 -5.95682,0.34725 -2.07886,0.18702 -4.22882,0.38022 -6.98724,0.38022 -1.83413,0 -3.74503,-0.0835 -5.84347,-0.25605 -12.45925,-1.0196 -32.44309,-10.74001 -41.58183,-15.90495 -4.51424,-3.32309 -4.93208,-5.47202 -4.10105,-9.87394 H 62.2563 c -0.75993,6.51118 0.36631,14.08421 10.20522,21.17036 l 0.29573,0.2133 0.31633,0.18032 c 2.92741,1.66669 29.13031,16.3269 47.55411,17.83491 2.47351,0.20351 4.75072,0.30192 6.96044,0.30192 3.37306,0 5.94395,-0.23133 8.23249,-0.43793 1.72286,-0.15662 3.20923,-0.29006 4.71312,-0.29006 2.47608,0 5.62502,0.31427 11.84048,2.59097 l 1.33645,0.52912 -0.70017,1.50595 L 186.99818,250 237.4663,141.45674 Z"
   id="path4609"
   inkscape:connector-curvature="0"
   style="fill:#864a05;fill-opacity:1;stroke-width:0.51520687" /><path
   d="m 129.78706,164.37262 v -51.68709 l -3.66828,-2.58016 c -3.94133,-2.33337 -7.23711,-5.19019 -9.88218,-8.2871 v 47.62417 H 28.54994 V 34.45291 h 87.68666 v 32.0098 c 2.78366,-2.32925 6.53128,-4.44675 11.59834,-5.94033 0.65277,-0.19217 1.30244,-0.36631 1.95212,-0.53015 V 19.5217 C 129.78706,8.73997 121.04709,0 110.26535,0 H 34.5217 C 23.73997,0 15,8.73997 15,19.5217 v 144.85041 c 0,10.78225 8.73997,19.52273 19.5217,19.52273 h 75.74417 c 10.78173,0 19.52119,-8.74048 19.52119,-19.52222 z M 103.3657,18.00648 c 2.31225,0 4.18606,1.87432 4.18606,4.18657 0,2.31225 -1.87381,4.18657 -4.18606,4.18657 -2.31224,0 -4.18708,-1.87432 -4.18708,-4.18657 0,-2.31225 1.87484,-4.18657 4.18708,-4.18657 z m -49.08993,0.7862 h 36.23552 v 6.8368 H 54.27577 Z m 18.11776,150.06945 c -4.02789,0 -7.29224,-3.26486 -7.29224,-7.29223 0,-4.02686 3.26435,-7.29173 7.29224,-7.29173 4.02737,0 7.29224,3.26487 7.29224,7.29173 0,4.02737 -3.26487,7.29223 -7.29224,7.29223 z"
   id="path4611"
   inkscape:connector-curvature="0"
   style="fill:#864a05;fill-opacity:1;stroke-width:0.51520687" />
<g
   id="g4625"
   transform="matrix(0.51520685,0,0,0.51520685,1.23316,0)">
</g>
<g
   id="g4627"
   transform="matrix(0.51520685,0,0,0.51520685,1.23316,0)">
</g>
<g
   id="g4629"
   transform="matrix(0.51520685,0,0,0.51520685,1.23316,0)">
</g>
<g
   id="g4631"
   transform="matrix(0.51520685,0,0,0.51520685,1.23316,0)">
</g>
<g
   id="g4633"
   transform="matrix(0.51520685,0,0,0.51520685,1.23316,0)">
</g>
<g
   id="g4635"
   transform="matrix(0.51520685,0,0,0.51520685,1.23316,0)">
</g>
<g
   id="g4637"
   transform="matrix(0.51520685,0,0,0.51520685,1.23316,0)">
</g>
<g
   id="g4639"
   transform="matrix(0.51520685,0,0,0.51520685,1.23316,0)">
</g>
<g
   id="g4641"
   transform="matrix(0.51520685,0,0,0.51520685,1.23316,0)">
</g>
<g
   id="g4643"
   transform="matrix(0.51520685,0,0,0.51520685,1.23316,0)">
</g>
<g
   id="g4645"
   transform="matrix(0.51520685,0,0,0.51520685,1.23316,0)">
</g>
<g
   id="g4647"
   transform="matrix(0.51520685,0,0,0.51520685,1.23316,0)">
</g>
<g
   id="g4649"
   transform="matrix(0.51520685,0,0,0.51520685,1.23316,0)">
</g>
<g
   id="g4651"
   transform="matrix(0.51520685,0,0,0.51520685,1.23316,0)">
</g>
<g
   id="g4653"
   transform="matrix(0.51520685,0,0,0.51520685,1.23316,0)">
</g>
<g
   id="g5358"
   transform="matrix(0.33011216,0,0,0.35943531,31.03578,45.80341)"><path
     style="fill:#ff9138;fill-opacity:1;stroke:#864a05;stroke-width:5.93309736;stroke-miterlimit:4;stroke-dasharray:none;stroke-opacity:1"
     inkscape:connector-curvature="0"
     d="m 2.9665487,243.21834 c 0,-4.30306 6.7672941,-41.28576 7.9142803,-43.25093 0.408654,-0.70012 1.423749,-5.2353 2.255726,-10.07818 1.940785,-11.29692 5.518973,-23.43503 7.62524,-25.86641 0.905416,-1.0453 9.030434,-3.52986 18.055599,-5.52134 27.725373,-6.11789 39.945042,-10.83033 45.978057,-17.73112 2.875522,-3.28923 7.224644,-6.71736 9.664475,-7.61796 3.87654,-1.43097 4.436348,-2.3414 4.436348,-7.21622 0,-3.06829 -0.88582,-6.92434 -1.968274,-8.56908 -1.082454,-1.64482 -2.444379,-6.06059 -3.026531,-9.81288 -0.582163,-3.75232 -2.273618,-8.04281 -3.759012,-9.53451 -1.485285,-1.491758 -2.70052,-3.395548 -2.70052,-4.230664 0,-0.835125 -1.449697,-3.594556 -3.221501,-6.132168 C 81.472446,83.72132 80.97253,81.000288 80.819415,69.146302 80.523643,46.244582 82.377694,35.764753 88.434602,26.102629 96.98667,12.459694 113.50232,3.0104837 128.87142,2.9668698 c 6.00557,-0.017053 8.52878,0.7202476 11.05069,3.2288412 1.90433,1.8944153 6.3796,3.771774 10.72468,4.499121 8.64473,1.446917 16.41957,7.259955 20.19451,15.098943 1.89781,3.941018 2.50385,8.935865 2.50569,20.648787 9.9e-4,8.662145 0.63122,15.86199 1.43396,16.387331 3.89338,2.547949 0.26128,20.152081 -5.84651,28.337571 -2.29689,3.078049 -4.19018,6.830336 -4.20739,8.338466 -0.0174,1.50806 -1.30596,5.71602 -2.86364,9.35097 -5.17323,12.07197 -3.39308,24.01981 3.97735,26.69422 1.3734,0.49833 4.75216,3.97646 7.50835,7.72909 2.75626,3.75267 6.62201,7.20854 8.59067,7.67972 1.96879,0.47131 10.79768,3.86019 19.61973,7.53105 8.82205,3.67081 16.4701,6.67424 16.99562,6.67424 0.52561,0 3.74657,1.87611 7.15799,4.16928 6.09623,4.0978 9.20278,9.56774 9.20278,16.2034 0,1.78399 1.3325,5.9461 2.96082,9.24928 2.62058,5.31581 4.4042,15.50999 8.01407,45.80297 l 0.76788,6.4433 H 124.81251 2.9665586 v -3.81511 z"
     id="path2396" /><text
     transform="scale(1.3965716,0.71603919)"
     xml:space="preserve"
     font-size="24"
     id="svg_2"
     y="258.42407"
     x="-250.1169"
     stroke-linecap="null"
     stroke-linejoin="null"
     style="font-size:144.84446716px;font-family:Arial;text-anchor:middle;fill:#000000;stroke:#000000;stroke-width:0;stroke-dasharray:none" />
<text
     transform="scale(1.3139625,0.76105673)"
     xml:space="preserve"
     font-size="24"
     id="svg_3"
     y="271.85724"
     x="-247.95993"
     stroke-linecap="null"
     stroke-linejoin="null"
     style="font-size:131.7716217px;font-family:Arial;text-anchor:middle;fill:#000000;stroke:#000000;stroke-width:0;stroke-dasharray:none" />
<text
     xml:space="preserve"
     font-size="24"
     id="svg_4"
     y="142.97015"
     x="-363.30646"
     stroke-linecap="null"
     stroke-linejoin="null"
     style="font-size:24px;font-family:Arial;text-anchor:middle;fill:#000000;stroke:#000000;stroke-width:0;stroke-dasharray:none" />
</g></svg>
